<svg width="20" height="20" viewBox="0 0 20 20" fill="none" xmlns="http://www.w3.org/2000/svg">
<g clip-path="url(#clip0_1184_7710)">
<path d="M10 0C4.48609 0 0 4.48609 0 10C0 15.5139 4.48609 20 10 20C15.5139 20 20 15.5139 20 10C20 4.48609 15.5139 0 10 0ZM10 18.6957C5.20523 18.6957 1.30434 14.7948 1.30434 10C1.30434 5.2052 5.20523 1.30434 10 1.30434C14.7948 1.30434 18.6957 5.20523 18.6957 10C18.6957 14.7948 14.7948 18.6957 10 18.6957Z" fill="#3C4253"/>
<path d="M9.99984 4.34766C6.88332 4.34766 4.34766 6.88332 4.34766 9.99984C4.34766 13.1166 6.88332 15.652 9.99984 15.652C13.1166 15.652 15.652 13.1166 15.652 9.99984C15.652 6.88332 13.1166 4.34766 9.99984 4.34766ZM9.99984 14.3477C7.60246 14.3477 5.65203 12.3972 5.65203 9.99984C5.65203 7.60246 7.60246 5.65203 9.99984 5.65203C12.3972 5.65203 14.3477 7.60246 14.3477 9.99984C14.3477 12.3972 12.3972 14.3477 9.99984 14.3477Z" fill="#3C4253"/>
<path d="M12.0896 14.2341L11.1675 15.1562L14.3849 18.3737L15.307 17.4515L12.0896 14.2341Z" fill="#3C4253"/>
<path d="M15.156 11.1711L14.2339 12.0933L17.4513 15.3107L18.3734 14.3885L15.156 11.1711Z" fill="#3C4253"/>
<path d="M2.54661 4.7108L1.62744 5.63623L4.86645 8.85332L5.78561 7.9279L2.54661 4.7108Z" fill="#3C4253"/>
<path d="M5.63685 1.62722L4.71143 2.54639L7.92852 5.78539L8.85395 4.86623L5.63685 1.62722Z" fill="#3C4253"/>
<path d="M4.71557 11.1677L1.47656 14.3848L2.39573 15.3102L5.63473 12.0931L4.71557 11.1677Z" fill="#3C4253"/>
<path d="M7.77897 14.2328L4.56201 17.4507L5.48444 18.3728L8.7014 15.155L7.77897 14.2328Z" fill="#3C4253"/>
<path d="M14.3851 1.47584L11.168 4.71484L12.0934 5.63401L15.3105 2.395L14.3851 1.47584Z" fill="#3C4253"/>
<path d="M17.4513 4.56185L14.2334 7.77881L15.1556 8.70124L18.3734 5.48427L17.4513 4.56185Z" fill="#3C4253"/>
</g>
<defs>
<clipPath id="clip0_1184_7710">
<rect width="20" height="20" fill="white"/>
</clipPath>
</defs>
</svg>
