<svg width="20" height="20" viewBox="0 0 20 20" fill="none" xmlns="http://www.w3.org/2000/svg">
<g clip-path="url(#clip0_1184_7704)">
<path d="M4.89356 14.1482L2.25293 16.7896L3.21075 17.7471L5.85138 15.1057L4.89356 14.1482Z" fill="#3C4253"/>
<path d="M5.15169 18.8441L1.1562 14.8488C0.891868 14.5842 0.46296 14.5842 0.198428 14.8488C-0.0661428 15.1134 -0.0661428 15.5421 0.198428 15.8064L4.19391 19.8017C4.32598 19.9339 4.49934 20.0001 4.6727 20.0001C4.84606 20.0001 5.01942 19.934 5.15172 19.8017C5.41626 19.5371 5.41626 19.1084 5.15169 18.8441Z" fill="#3C4253"/>
<path d="M19.8013 0.198341C19.5368 -0.0659964 19.1083 -0.0662307 18.8437 0.198341L13.8327 5.20965C13.5681 5.47422 13.5681 5.9029 13.8327 6.16743C13.965 6.2995 14.1381 6.36563 14.3115 6.36563C14.4849 6.36563 14.6582 6.2995 14.7903 6.16743L19.8013 1.15616C20.0659 0.891586 20.0659 0.462912 19.8013 0.198341Z" fill="#3C4253"/>
<path d="M8.44975 7.80875L7.4873 8.76172L9.78965 11.087L10.7521 10.134L8.44975 7.80875Z" fill="#3C4253"/>
<path d="M15.2868 5.72872L14.339 4.78063C13.285 3.72621 11.569 3.72602 10.5146 4.78063L3.02021 12.275C2.75563 12.5393 2.75563 12.9682 3.02021 13.2326L6.85768 17.0701C6.98456 17.1971 7.15702 17.2685 7.33647 17.2685C7.33671 17.2685 7.33694 17.2685 7.33694 17.2687C7.51663 17.2685 7.68886 17.1969 7.81597 17.0696L15.3103 9.55264C15.8232 9.03932 16.1027 8.3576 16.0977 7.63299C16.0925 6.90818 15.8022 6.22939 15.2868 5.72872ZM14.3523 8.59553C14.3521 8.59576 14.3518 8.596 14.3517 8.59619L7.33581 15.6328L4.45677 12.7537L11.4724 5.73817C11.9988 5.21177 12.8552 5.21177 13.3816 5.73817L14.3363 6.69302C14.5963 6.94584 14.741 7.2831 14.7435 7.64248C14.7462 8.00209 14.6072 8.34068 14.3523 8.59553Z" fill="#3C4253"/>
<path d="M10.6817 5.57077L9.72412 6.52832L11.0784 7.88265L12.036 6.9251L10.6817 5.57077Z" fill="#3C4253"/>
<path d="M6.21291 10.0405L5.25537 10.998L6.60969 12.3524L7.56724 11.3948L6.21291 10.0405Z" fill="#3C4253"/>
</g>
<defs>
<clipPath id="clip0_1184_7704">
<rect width="20" height="20" fill="white"/>
</clipPath>
</defs>
</svg>
