<svg width="20" height="20" viewBox="0 0 20 20" fill="none" xmlns="http://www.w3.org/2000/svg">
<g clip-path="url(#clip0_1184_7707)">
<path d="M18.2414 2.78422C17.2327 1.76449 15.8701 1.20074 14.4045 1.1966C12.896 1.19156 11.3843 1.76313 10.1731 2.77918C8.79553 1.56609 7.54944 0.974609 6.37604 0.974609C4.73729 0.974609 3.21686 1.62004 2.10518 2.78172C1.26964 3.61727 0.697138 4.7143 0.448974 5.95442C0.374677 6.32711 0.616162 6.6895 0.988896 6.76407C1.36116 6.83793 1.72397 6.59688 1.79854 6.22414C1.99304 5.25145 2.43546 4.39754 3.0887 3.7441C3.94878 2.84547 5.11643 2.35074 6.37608 2.35074C7.2887 2.35074 8.39421 2.96567 9.65018 4.16633C9.791 4.30785 9.97608 4.38606 10.1713 4.38629C10.1715 4.38629 10.172 4.38629 10.1722 4.38629C10.3669 4.38629 10.552 4.30856 10.693 4.1675C11.707 3.15352 13.0533 2.57277 14.3882 2.57277C14.3926 2.57277 14.3967 2.57277 14.4008 2.57277C15.5132 2.57574 16.5031 2.98379 17.2554 3.7441C18.138 4.6659 18.624 5.87325 18.624 7.14434C18.624 8.41637 18.127 9.65376 17.2742 10.5257L10.1833 17.3803L4.56065 11.9477C4.28749 11.6838 3.85194 11.6918 3.58772 11.9643C3.32374 12.2377 3.33132 12.6732 3.60448 12.9372L9.70538 18.8317C9.83862 18.9606 10.0111 19.0251 10.1833 19.0251C10.3556 19.0251 10.5281 18.9606 10.6615 18.8319L18.2441 11.5016C19.3599 10.3611 19.9999 8.77297 19.9999 7.1443C19.9999 5.517 19.3781 3.97137 18.2414 2.78422Z" fill="#3C4253"/>
<path d="M18.7615 8.72728H13.211C13.0216 8.72728 12.8408 8.80501 12.711 8.94263L10.6245 11.1488L8.22133 5.69747C8.11812 5.46329 7.89336 5.30571 7.63809 5.28853C7.38418 5.27224 7.13902 5.39724 7.00527 5.61536L5.09656 8.72728H0.688086C0.308008 8.72728 0 9.03528 0 9.41536C0 9.79544 0.308008 10.1034 0.688086 10.1034H5.48145C5.72066 10.1034 5.94293 9.97915 6.06793 9.77501L7.4918 7.45392L9.78332 12.6516C9.87621 12.8626 10.0686 13.0129 10.2957 13.0521C10.3347 13.0587 10.3739 13.0622 10.4129 13.0622C10.6005 13.0622 10.7819 12.9856 10.9129 12.847L13.5074 10.1034H18.7615C19.1416 10.1034 19.4496 9.79536 19.4496 9.41532C19.4495 9.03528 19.1415 8.72728 18.7615 8.72728Z" fill="#3C4253"/>
</g>
<defs>
<clipPath id="clip0_1184_7707">
<rect width="20" height="20" fill="white"/>
</clipPath>
</defs>
</svg>
