<svg width="220" height="175" viewBox="0 0 220 175" fill="none" xmlns="http://www.w3.org/2000/svg">
<path fill-rule="evenodd" clip-rule="evenodd" d="M91.3 44.1646C53.918 65.7619 29.8026 80.5758 25.1162 84.6115C21.5901 87.616 22.5389 91.7282 26.5623 91.048C27.5011 90.9117 35.4507 86.2423 44.2927 80.6764C63.8973 68.4669 67.2922 66.7597 58.6769 73.6667C38.6334 89.4549 17.5209 107.124 16.2283 109.005C12.5282 114.112 15.6689 118.577 21.9258 116.774C24.8755 115.962 53.3733 100.959 72.5787 90.1815C79.5017 86.3642 77.9389 87.4859 62.3556 98.1209C38.1545 114.545 23.9135 125.4 22.3106 128.445C21.5984 129.923 21.424 131.801 22.0535 133.275C22.8188 135.465 23.535 135.776 26.0396 135.86C30.7802 135.939 46.193 128.971 84.7881 109.786L119.318 92.5332L98.1967 106.401C74.307 122.109 56.5363 134.403 44.4388 143.957C37.8319 149.07 35.8685 150.953 35.5152 152.922C34.8067 155.965 35.0757 156.277 37.9856 157.612L40.3586 158.769L77.2568 140.661C97.4929 130.82 113.173 123.271 111.877 124.034C110.672 124.753 106.653 127.445 102.947 130.092C95.8481 135.118 94.0654 137.805 95.548 140.753C98.019 145.667 105.75 143.234 137.734 127.15C151.001 120.59 162.346 114.437 162.97 113.675C164.175 112.286 164.174 112.286 162.252 112.469C161.224 112.651 153.671 114.994 145.583 117.83C135.082 121.432 131.462 122.469 132.89 121.302C134.72 119.822 147.537 111.922 196.037 82.3833C203.495 77.8492 210.148 73.4957 210.682 72.5554C212.376 70.1365 211.476 67.4553 208.7 66.3884L206.194 65.6339L158.845 89.6692C132.803 102.878 102.741 118.331 92.0214 124.17C81.3462 129.874 72.591 134.277 72.6798 134.008C73.1239 132.666 104.872 111.663 149.84 82.8924C183.109 61.5729 191.86 55.6046 192.839 53.5452C193.907 51.2172 192.068 48.4487 189.07 48.0531C186.834 47.8347 181.875 50.2164 134.885 74.7429C106.386 89.5221 81.5511 102.459 79.4958 103.269C77.4854 104.168 69.8018 107.808 62.3866 111.537C54.9715 115.266 48.9403 117.963 49.0741 117.784C49.3405 116.979 87.965 91.1745 111.052 76.3184C135.523 60.6541 161.779 43.1968 165.35 40.5053C166.957 39.2493 167.803 37.5927 167.844 35.8932C167.883 33.2992 167.793 33.1206 165.242 32.5004C162.96 31.969 161.397 32.6435 150.229 38.2594C143.44 41.674 117.802 55.6862 93.4154 69.2931C69.0289 82.9001 47.9917 94.4868 46.741 95.1158C43.8372 96.4641 48.7917 92.2936 78.2085 68.6574C106.465 46.0525 107.982 44.6179 107.93 41.3981C107.881 39.2963 107.477 38.9395 105.33 38.4526C102.421 37.7885 101.438 38.2826 91.3 44.1646Z" fill="#FFB60C"/>
</svg>
