<svg width="42" height="42" viewBox="0 0 42 42" fill="none" xmlns="http://www.w3.org/2000/svg">
<path d="M33.811 16.0926C31.2203 16.0164 27.9612 13.7284 23.8662 15.2536V8.77137C29.8833 3.20401 34.6466 12.966 42.0006 11.9745C41.4992 12.8897 40.7473 14.1511 37.3209 13.3887L38.8252 15.108C37.3209 15.5655 35.9003 14.7967 34.3961 14.0339C33.8946 14.7967 34.8138 15.4829 34.8138 16.0167C34.5629 16.0164 34.1452 16.0926 33.811 16.0926Z" fill="#1B3C74"/>
<path d="M7.18679 15.9404C7.18679 15.4066 8.106 14.72 7.60458 13.9576C6.10032 14.7966 4.67968 15.5654 3.17542 15.0316L4.67968 13.3124C1.25337 14.0751 0.501421 12.8134 0 11.8982C7.27042 12.8896 12.0337 3.12804 18.1344 8.69506V15.1776C13.538 13.4238 9.94479 16.7794 7.18679 15.9404Z" fill="#1B3C74"/>
<path d="M21.0226 6.92729C23.0938 6.92729 24.7728 5.37656 24.7728 3.46364C24.7728 1.55073 23.0938 0 21.0226 0C18.9515 0 17.2725 1.55073 17.2725 3.46364C17.2725 5.37656 18.9515 6.92729 21.0226 6.92729Z" fill="#1B3C74"/>
<path d="M21.023 41.9999C20.6162 41.9999 20.2861 41.6964 20.2861 41.3225V6.6989C20.2861 6.32497 20.6162 6.02148 21.023 6.02148C21.4297 6.02148 21.7598 6.32497 21.7598 6.6989V41.3225C21.7598 41.6964 21.4301 41.9999 21.023 41.9999Z" fill="#1B3C74"/>
<path d="M27.5153 31.4314C26.9373 31.4314 26.5839 30.8197 26.9023 30.3791C27.4247 29.6559 27.9817 28.5839 27.6671 27.5813C27.1952 26.0781 24.8494 25.4021 23.4479 24.998L23.1178 24.9021C21.3822 24.391 19.9096 24.4747 18.4849 24.5546C16.6907 24.6559 14.9967 24.7514 13.3189 23.5612C12.5169 22.9925 11.1666 21.767 11.1302 19.9516C11.0889 17.9223 12.7379 16.5767 13.2442 16.2122C13.5647 15.9815 14.0278 16.034 14.2787 16.3284C14.5296 16.6231 14.4728 17.0488 14.1523 17.2795C13.8885 17.4692 12.5744 18.488 12.6035 19.9265C12.6285 21.1763 13.6266 22.0682 14.2194 22.4885C15.4591 23.3681 16.7545 23.2946 18.3951 23.2022C19.8831 23.1182 21.569 23.023 23.568 23.6117L23.8897 23.7048C25.5737 24.1902 28.3922 25.0027 29.0837 27.205C29.4569 28.3929 29.1272 29.7497 28.1302 31.1283C27.988 31.3254 27.754 31.4314 27.5153 31.4314Z" fill="#1B3C74"/>
<path d="M25.3553 36.4725C24.7769 36.4725 24.4235 35.8608 24.7422 35.4201C25.0856 34.9452 25.4533 34.2461 25.2543 33.6121C24.9537 32.6542 23.368 32.1973 22.4208 31.9243L22.1869 31.8565C21.0009 31.507 19.9819 31.5646 18.9971 31.6205C17.7474 31.6916 16.455 31.7641 15.206 30.8783C14.6095 30.4553 13.6045 29.5418 13.5772 28.1771C13.5463 26.6546 14.7746 25.65 15.1515 25.3784C15.472 25.1477 15.9348 25.1999 16.186 25.4939C16.4369 25.7886 16.3809 26.214 16.0604 26.445C15.8883 26.5689 15.0318 27.2331 15.0506 28.1524C15.0668 28.9511 15.7189 29.5313 16.1064 29.806C16.9166 30.3808 17.7514 30.3337 18.9068 30.2683C19.9756 30.208 21.187 30.14 22.6363 30.5664L22.8614 30.6318C24.0916 30.9864 26.15 31.5795 26.6702 33.2368C26.9517 34.133 26.7096 35.1478 25.9698 36.1707C25.8276 36.3664 25.5937 36.4725 25.3553 36.4725Z" fill="#1B3C74"/>
<path d="M23.6237 41.0855C23.0457 41.0855 22.6924 40.4738 23.0107 40.0331C23.1739 39.8072 23.4314 39.3746 23.3198 39.0183C23.1566 38.4981 22.181 38.2169 21.5978 38.0489L21.4405 38.0032C20.6959 37.7837 20.0412 37.821 19.4086 37.8565C18.5314 37.9063 17.6247 37.9571 16.7206 37.316C15.9746 36.7859 15.5557 36.0854 15.5409 35.3433C15.5185 34.2256 16.4089 33.4957 16.6827 33.2985C17.0032 33.0679 17.4659 33.1194 17.7172 33.4137C17.9681 33.708 17.9121 34.1338 17.5919 34.3648C17.4936 34.4356 17.0043 34.8143 17.0143 35.3179C17.0231 35.7542 17.3982 36.0848 17.6207 36.2429C18.0657 36.5586 18.5093 36.5501 19.3184 36.5037C20.0151 36.4648 20.8816 36.4157 21.8899 36.7124L22.0388 36.7557C22.8475 36.9888 24.3528 37.423 24.7353 38.642C24.9431 39.3042 24.7714 40.0443 24.2375 40.7823C24.0961 40.9794 23.8621 41.0855 23.6237 41.0855Z" fill="#1B3C74"/>
<path d="M27.9172 23.4792C27.1152 23.4792 26.9122 22.4164 27.6656 22.165C28.8236 21.7786 29.5836 20.8806 29.6024 19.8781C29.6201 18.9266 28.9462 18.0307 27.8859 17.5958C27.5142 17.4434 27.3477 17.0427 27.5131 16.701C27.6792 16.3596 28.1151 16.2058 28.4865 16.3582C30.0872 17.015 31.1037 18.4054 31.0757 19.9008C31.0462 21.47 29.9052 22.8584 28.1685 23.4382C28.086 23.466 28.0009 23.4792 27.9172 23.4792Z" fill="#1B3C74"/>
<path d="M18.6255 41.4696C18.1985 41.4696 17.7796 41.3324 17.448 41.0794C17.0656 40.7878 16.8312 40.3668 16.8047 39.9244C16.7539 39.0621 17.4926 38.2908 18.4512 38.2051C18.8583 38.1706 19.2164 38.4415 19.2558 38.8138C19.2949 39.1864 18.9987 39.5173 18.5938 39.5535C18.1436 39.5938 18.2327 40.1662 18.6715 40.1117C19.1081 40.0572 19.5071 40.3823 19.5049 40.7868C19.5027 41.2433 19.0731 41.4696 18.6255 41.4696Z" fill="#1B3C74"/>
</svg>
