<svg width="20" height="20" viewBox="0 0 20 20" fill="none" xmlns="http://www.w3.org/2000/svg">
<path d="M16.7751 8.98707C16.7638 8.96801 16.752 8.94918 16.7388 8.93105L10.5741 0.295781C10.4418 0.110117 10.2277 0 9.99974 0C9.7715 0 9.55763 0.110117 9.4254 0.295781L3.26068 8.93105C3.24798 8.94918 3.23575 8.96777 3.22466 8.98707C1.95829 11.1713 1.97853 13.8226 3.279 16.0798C4.67197 18.4979 7.24728 20 9.99974 20C12.7522 20 15.3275 18.4977 16.7207 16.0795C18.0209 13.8226 18.0414 11.1711 16.7751 8.98707ZM15.4974 15.3748C14.3558 17.357 12.2492 18.5882 9.99974 18.5882C7.75056 18.5882 5.64396 17.3572 4.50208 15.3751C3.44677 13.5431 3.42068 11.4852 4.42939 9.72332L9.99974 1.9207L15.5701 9.72352C16.5786 11.4854 16.5527 13.5433 15.4974 15.3748Z" fill="#3C4253"/>
<path d="M13.6942 11.6235C13.3043 11.6235 12.9883 11.9396 12.9883 12.3294C12.9883 14.0028 11.6266 15.3645 9.95297 15.3645C9.56309 15.3645 9.24707 15.6805 9.24707 16.0704C9.24707 16.4603 9.56309 16.7763 9.95297 16.7763C12.405 16.7763 14.4 14.7812 14.4 12.3295C14.4001 11.9396 14.0841 11.6235 13.6942 11.6235Z" fill="#3C4253"/>
</svg>
