<svg width="32" height="32" viewBox="0 0 32 32" fill="none" xmlns="http://www.w3.org/2000/svg">
<g clip-path="url(#clip0_981_1442)">
<path fill-rule="evenodd" clip-rule="evenodd" d="M31.8263 13.7041C31.6214 12.2816 30.4303 11.2504 28.9933 11.2504C28.991 11.2504 28.9877 11.2504 28.9853 11.2504C28.006 11.2504 27.0941 10.7241 26.6046 9.87739C26.1153 9.0292 26.1164 7.97551 26.6079 7.12676C27.3266 5.8842 27.031 4.3367 25.9048 3.44732C24.6929 2.48926 23.3535 1.71426 21.9241 1.14364C20.5886 0.61051 19.0986 1.12864 18.3814 2.37545C17.8923 3.22607 16.9795 3.75482 15.9996 3.75482C15.0199 3.75482 14.1071 3.22607 13.6186 2.37545C12.9008 1.12864 11.4114 0.610448 10.0759 1.14364C8.64645 1.71426 7.30708 2.48926 6.09458 3.44732C4.96902 4.33732 4.67333 5.8842 5.39208 7.12676C5.88352 7.97551 5.8847 9.0292 5.3947 9.87739C4.90589 10.7241 3.99402 11.2504 3.01458 11.2504C3.01164 11.2504 3.00902 11.2504 3.00577 11.2504C1.56958 11.2504 0.378203 12.2817 0.173266 13.7041C0.0646406 14.4598 0.00976562 15.2317 0.00976562 15.9998C0.00976562 16.7679 0.0646406 17.5404 0.173266 18.2961C0.378203 19.7186 1.56958 20.7498 3.00577 20.7498H3.01458C3.99395 20.7498 4.90583 21.2754 5.3947 22.1229C5.8847 22.971 5.88352 24.0248 5.39208 24.8735C4.67339 26.1161 4.96902 27.6629 6.09458 28.5529C7.30708 29.5111 8.64639 30.286 10.0759 30.8566C10.4291 30.9973 10.7928 31.0648 11.1501 31.0648C12.1454 31.0648 13.091 30.5423 13.6186 29.6248C14.1071 28.7742 15.0198 28.2455 15.9996 28.2455C16.9795 28.2455 17.8923 28.7742 18.3814 29.6248C18.9052 30.5354 19.8411 31.0571 20.828 31.0648H20.8676C21.2193 31.0626 21.5769 30.9953 21.924 30.8566C23.3535 30.286 24.6928 29.5111 25.9047 28.5529C27.0309 27.6629 27.3266 26.1161 26.6078 24.8735C26.1164 24.0248 26.1152 22.9711 26.6046 22.1229C27.094 21.2754 28.0058 20.7498 28.9853 20.7498H28.9932C30.4303 20.7498 31.6214 19.7185 31.8263 18.2961C31.9352 17.5404 31.9901 16.7685 31.9901 15.9998C31.9901 15.2323 31.9353 14.4597 31.8263 13.7041ZM21.0145 16.9998H16.9998V21.0148C16.9998 21.5667 16.5521 22.0148 15.9995 22.0148C15.4478 22.0148 14.9995 21.5667 14.9995 21.0148V16.9998H10.9851C10.4329 16.9998 9.98545 16.5522 9.98545 15.9998C9.98545 15.4479 10.4329 14.9998 10.9851 14.9998H14.9995V10.9854C14.9995 10.433 15.4478 9.98551 15.9995 9.98551C16.552 9.98551 16.9998 10.433 16.9998 10.9854V14.9998H21.0145C21.5665 14.9998 22.0148 15.4479 22.0148 15.9998C22.0148 16.5522 21.5665 16.9998 21.0145 16.9998Z" fill="#2490EB"/>
</g>
<defs>
<clipPath id="clip0_981_1442">
<rect width="32" height="32" fill="white"/>
</clipPath>
</defs>
</svg>
