<svg width="32" height="28" viewBox="0 0 32 28" fill="none" xmlns="http://www.w3.org/2000/svg">
<path fill-rule="evenodd" clip-rule="evenodd" d="M13.72 11.5268C14.3353 10.7976 16.8016 8.39113 20.7637 11.0531C20.9248 11.1614 20.9647 11.3756 20.8527 11.5314C20.7407 11.6873 20.5193 11.7258 20.3582 11.6174C16.5154 9.03555 14.347 11.8428 14.1667 12.09C14.089 12.2165 13.9328 12.2845 13.7783 12.2486C12.3249 11.9149 10.9479 11.8461 9.5825 12.5362C8.41357 13.1271 7.49342 14.2036 6.88492 15.7088C6.48091 17.6468 7.88495 19.1974 8.04809 19.3697C9.63284 20.8044 13.3276 21.055 15.0297 19.9585C15.4515 19.6866 16.7086 18.9467 18.2172 18.7207C18.6471 18.6412 19.2185 18.637 19.653 18.6855C20.3002 18.7577 20.6585 18.5355 21.0491 18.2932C22.0176 17.6924 23.1477 16.9913 27.7436 18.8812C28.9458 18.6313 29.9161 18.3295 30.6095 17.8096C31.2977 17.2934 31.7289 16.5385 31.8681 15.362C32.3119 11.6158 31.6264 8.4642 29.9592 6.02151C28.2668 3.54196 25.5549 1.7809 21.9786 0.859162C17.436 -0.31176 12.7868 -0.266838 8.90617 0.877946C5.1927 1.97345 2.18811 4.07682 0.672898 7.08387C0.144722 8.13202 -0.0816075 9.32216 0.0262423 10.4729C0.128482 11.5634 0.53146 12.6189 1.26286 13.4832C2.87226 15.3851 5.54053 15.3452 6.2943 15.2919C6.96753 13.7155 7.9756 12.5755 9.25474 11.9289C10.5141 11.2923 12.023 11.1401 13.72 11.5268ZM19.4924 14.2427C20.3697 14.4031 21.8967 14.6823 22.7123 13.4111C23.1438 12.7384 23.6332 12.2999 24.0728 11.906C24.696 11.3478 25.204 10.8925 25.172 9.8978C25.1666 9.70861 25.3208 9.55099 25.5164 9.54577C25.712 9.54056 25.8749 9.68975 25.8802 9.87902C25.9223 11.1821 25.3074 11.7329 24.5533 12.4086C24.15 12.7699 23.701 13.1722 23.315 13.7739C22.2435 15.4441 20.4133 15.1095 19.3619 14.9172C17.833 14.6377 16.8949 13.9592 15.2507 14.6054C14.3647 14.9537 13.1889 15.2176 12.2413 14.9575C11.2616 14.6887 10.242 15.896 10.551 16.8471C10.6092 17.0282 10.5048 17.2207 10.3177 17.2771C10.1305 17.3335 9.93151 17.2324 9.87327 17.0513C9.39832 15.5896 10.9045 13.8771 12.4329 14.2965C13.2184 14.5121 14.254 14.2554 14.9841 13.9685C16.9257 13.2054 17.7483 13.9237 19.4924 14.2427ZM27.3111 17.2039C27.0197 16.862 26.8231 16.3243 26.9131 15.8813C26.9597 15.6519 27.081 15.4683 27.2834 15.3718C27.7657 15.1418 28.2449 14.8162 28.6247 14.4489C28.7634 14.3146 28.9886 14.3146 29.1274 14.4489C29.2662 14.5832 29.2662 14.801 29.1274 14.9353C28.833 15.2201 28.5182 15.451 28.2426 15.6271C27.7148 15.9642 27.4811 15.8175 27.6435 16.3641C27.7342 16.6697 27.9742 17.0104 28.3376 17.0104C28.534 17.0104 28.6932 17.1644 28.6932 17.3544C28.6932 17.5443 28.534 17.6984 28.3376 17.6984C27.9023 17.6984 27.5569 17.4923 27.3111 17.2039ZM23.4545 9.35487C23.2635 9.39865 23.072 9.28431 23.0267 9.09954C22.353 6.36696 19.7709 8.35871 19.7635 8.36435C19.6093 8.48155 19.3861 8.4557 19.2649 8.30657C19.1438 8.15745 19.1705 7.94141 19.3246 7.82421C19.3346 7.81664 22.7845 5.1539 23.7183 8.94099C23.7636 9.12575 23.6455 9.31109 23.4545 9.35487ZM27.3322 9.10419C27.4826 8.98249 27.7064 9.0017 27.8322 9.14718C27.8352 9.15054 28.7234 10.1531 28.6279 11.508C28.9938 11.5125 29.4367 11.7961 29.8103 12.8443C29.874 13.0239 29.7751 13.2194 29.5895 13.281C29.4039 13.3426 29.2018 13.2469 29.1381 13.0673C28.7844 12.0749 28.4953 12.2517 28.435 12.3036C28.3464 12.4099 28.1967 12.459 28.0537 12.4165C27.8676 12.3611 27.7624 12.1714 27.8169 11.9912C28.0619 11.1724 27.854 10.2427 27.2878 9.58791C27.162 9.44243 27.1819 9.22589 27.3322 9.10419ZM14.5823 16.7006C14.6912 16.5425 14.9119 16.4998 15.0753 16.6052C15.991 17.1957 17.3889 15.6529 18.5675 16.0696C19.6636 16.4572 20.8993 16.4605 21.9886 16.0507C22.1711 15.9825 22.3763 16.0703 22.4469 16.2468C22.5175 16.4235 22.4267 16.622 22.2441 16.6903C20.9975 17.1593 19.5805 17.1582 18.3259 16.7146C17.5172 16.4287 16.0237 18.0436 14.6809 17.1776C14.5175 17.0722 14.4734 16.8586 14.5823 16.7006ZM27.4637 8.0601C27.2851 8.13652 27.0761 8.05832 26.9971 7.88541C26.1274 5.99215 24.5471 5.89067 24.5426 5.89038C24.347 5.87624 24.2002 5.7114 24.2148 5.52221C24.2294 5.33295 24.3998 5.19104 24.5954 5.20511C24.6011 5.20554 26.5998 5.33488 27.6443 7.60859C27.7233 7.7815 27.6424 7.98369 27.4637 8.0601ZM17.7369 8.36414C17.5421 8.38199 17.3692 8.24358 17.3509 8.05511C17.3495 8.04225 16.975 4.63797 19.1613 3.77529C18.9469 2.4711 20.2858 2.08236 20.29 2.08108C20.4772 2.02466 20.6761 2.12579 20.7344 2.30684C20.7927 2.48788 20.6882 2.68043 20.5011 2.73678C20.4989 2.73749 19.8182 2.93483 19.8608 3.60281C20.4769 3.52918 21.2408 3.61717 22.1872 3.93713C22.372 3.99941 22.4696 4.19495 22.4052 4.37379C22.3408 4.55262 22.1387 4.64704 21.9538 4.58476C17.5174 3.08509 18.0549 7.97661 18.0563 7.99061C18.0748 8.17909 17.9317 8.34635 17.7369 8.36414ZM8.26291 8.30043C8.21611 8.48448 8.02395 8.59696 7.83372 8.55168C7.64356 8.50648 7.5273 8.32057 7.57403 8.13652C7.57609 8.1286 8.24128 5.36559 11.4828 6.29469C11.6708 6.34811 11.7783 6.53887 11.7231 6.7207C11.6679 6.90247 11.4708 7.00652 11.2828 6.9531C8.76023 6.23012 8.26438 8.29457 8.26291 8.30043ZM5.03539 7.5131C5.00313 7.70008 4.82035 7.82642 4.62709 7.79528C4.43376 7.76414 4.30317 7.58724 4.33543 7.40026C4.33721 7.38962 4.93632 3.73637 8.10685 3.63788C8.20112 2.84791 8.88941 1.23483 13.181 2.73564C13.3651 2.8002 13.4603 2.99689 13.3936 3.17501C13.3268 3.35313 13.1235 3.44512 12.9394 3.38056C8.7459 1.9141 8.78879 3.73223 8.80503 3.92927C8.83412 4.16289 8.65562 4.33522 8.4417 4.32786C6.48113 4.26466 5.33184 5.79425 5.03539 7.5131ZM13.7579 7.80214C13.2871 6.20827 13.3867 6.11928 14.1653 5.42401C14.2327 5.3638 14.3058 5.29853 14.3666 5.24282C15.7933 3.9352 15.8985 1.84989 15.8988 1.84382C15.9095 1.65463 16.0768 1.50965 16.2724 1.52001C16.468 1.53036 16.6178 1.6922 16.6071 1.88146C16.6068 1.88825 16.4881 4.24359 14.8555 5.73997C14.7684 5.81982 14.7044 5.87695 14.6458 5.9293C14.1532 6.36918 14.0901 6.42553 14.4411 7.61402C14.4948 7.79657 14.3854 7.98668 14.1967 8.03861C14.008 8.0906 13.8115 7.98469 13.7579 7.80214ZM4.50736 12.6722C4.41383 12.8391 4.19798 12.9011 4.02539 12.8106C4.01801 12.8067 1.42297 11.4847 3.17286 8.68474C3.27406 8.52226 3.49235 8.46991 3.66036 8.56783C3.8283 8.66581 3.88241 8.87693 3.78113 9.03948C2.42042 11.2168 4.35883 12.2031 4.3643 12.2059C4.53689 12.2965 4.60089 12.5053 4.50736 12.6722Z" fill="#2490EB"/>
<path fill-rule="evenodd" clip-rule="evenodd" d="M27.3068 21.4801C27.8406 20.6154 27.537 19.9443 27.7095 19.5834C27.6513 19.5837 27.5951 19.5702 27.5452 19.5455C23.2275 17.7574 22.2604 18.3573 21.4324 18.871C20.9301 19.1826 20.4696 19.4683 19.5725 19.3681C19.2231 19.3291 18.8768 19.3339 18.5413 19.3697C17.8446 21.5031 21.396 23.416 21.9895 23.7185C25.2009 23.4957 26.6857 22.4862 27.3068 21.4801Z" fill="#2490EB"/>
<path fill-rule="evenodd" clip-rule="evenodd" d="M20.6881 23.7636C19.4015 22.939 17.4471 21.3559 17.7792 19.5037C16.7034 19.7647 15.8279 20.2701 15.4697 20.4976C15.6168 21.5 15.662 22.085 15.6916 22.4674C15.7187 22.8193 15.731 22.9779 15.7971 23.1206C15.8595 23.255 15.9809 23.4234 16.2019 23.7296C16.6445 24.3433 17.4623 25.477 19.002 27.9999C19.8753 27.9699 20.3241 27.4745 20.5053 27.2032C20.2071 26.8212 19.7172 26.0628 19.4408 25.4049C19.1831 24.7916 18.9622 23.7286 19.9785 23.7551C20.2224 23.7615 20.4589 23.7643 20.6881 23.7636Z" fill="#2490EB"/>
</svg>
