<svg width="32" height="32" viewBox="0 0 32 32" fill="none" xmlns="http://www.w3.org/2000/svg">
<path d="M3.89822 10C3.81289 10.2934 3.79155 10.624 3.84489 10.9814C3.94622 11.6214 4.26622 12.304 4.75155 12.9067C5.23689 13.5094 5.83422 13.9734 6.43689 14.208C6.73022 14.3254 7.01822 14.384 7.28489 14.384C7.64755 14.384 7.97822 14.2774 8.24489 14.064C9.11955 13.36 8.95422 11.7547 7.87155 10.4054C6.86889 9.15735 5.49289 8.64535 4.59689 9.12535C4.36222 9.08802 3.79155 8.85868 3.73289 7.57335C3.71689 7.14668 3.94089 6.75735 4.32489 6.54402C4.73022 6.31468 5.21555 6.32535 5.60489 6.57602C7.41289 7.73868 9.46622 8.06402 10.6662 8.15468C10.4902 8.52268 10.3942 8.91735 10.3942 9.33335C10.3942 10.4107 11.0289 11.3974 12.1862 12.112C12.4262 12.2614 12.6449 12.464 12.8369 12.72C13.3916 13.4454 13.5302 14.384 13.2209 15.232C12.8209 16.3147 12.4316 18.1867 12.8529 20.9654C13.6422 26.1387 15.6796 26.64 15.9089 26.6827C15.9356 26.688 15.9676 26.688 15.9996 26.688C16.0316 26.688 16.0636 26.688 16.0902 26.6827C16.1596 26.6667 16.5862 26.576 17.1089 26.0747C15.7916 25.2054 14.9222 23.712 14.9222 22.0214C14.9222 19.5254 16.8102 17.4667 19.2369 17.1894C19.1462 16.4854 19.0022 15.8294 18.7782 15.232C18.4636 14.384 18.6076 13.4454 19.1622 12.72C19.3542 12.464 19.5729 12.2614 19.8129 12.112C20.9702 11.3974 21.6049 10.4107 21.6049 9.33335C21.6049 8.91735 21.5089 8.52268 21.3329 8.15468C22.5329 8.06402 24.5862 7.73868 26.3942 6.57602C26.7782 6.33068 27.2689 6.31468 27.6742 6.54402C28.0582 6.76268 28.2769 7.14668 28.2609 7.62668C28.2022 8.85335 27.6476 9.08802 27.3969 9.12535C26.5009 8.64535 25.1249 9.16268 24.1222 10.4054C23.0396 11.7547 22.8742 13.36 23.7489 14.064C24.0156 14.2774 24.3409 14.3787 24.6982 14.3787C25.1089 14.3787 25.5569 14.2454 25.9942 13.9947C26.4316 13.744 26.8689 13.376 27.2422 12.9067C27.7276 12.304 28.0476 11.6214 28.1489 10.9814C28.2022 10.624 28.1809 10.288 28.0956 10C28.6769 9.70135 29.2582 9.02935 29.3222 7.67468L29.3329 7.60535C29.3596 6.77335 28.9382 6.03202 28.2022 5.61602C27.4556 5.19468 26.5436 5.21602 25.8236 5.68002C23.7756 6.99735 21.2742 7.11468 20.5596 7.12002C19.5516 6.17068 17.9036 5.56268 15.9996 5.56268C14.0956 5.56268 12.4476 6.17068 11.4396 7.12002C10.7249 7.11468 8.23422 7.00268 6.18089 5.68002C5.46089 5.21602 4.54889 5.19468 3.80222 5.61602C3.06622 6.03202 2.63955 6.77335 2.66622 7.60535L2.67155 7.68002C2.73555 9.02935 3.31689 9.70135 3.89822 10Z" fill="#2490EB"/>
<path d="M19.7866 18.224C17.6906 18.224 15.9893 19.9253 15.9893 22.0213C15.9893 24.112 17.6906 25.8133 19.7866 25.8133C21.8773 25.8133 23.5786 24.112 23.5786 22.0213C23.5786 19.9253 21.8773 18.224 19.7866 18.224ZM20.9866 22.5493H20.3199V23.2213C20.3199 23.5147 20.0799 23.7547 19.7866 23.7547C19.4933 23.7547 19.2533 23.5147 19.2533 23.2213V22.5493H18.5813C18.2879 22.5493 18.0479 22.3093 18.0479 22.016C18.0479 21.7227 18.2879 21.4827 18.5813 21.4827H19.2533V20.8107C19.2533 20.5173 19.4933 20.2773 19.7866 20.2773C20.0799 20.2773 20.3199 20.5173 20.3199 20.8107V21.4827H20.9919C21.2853 21.4827 21.5253 21.7227 21.5253 22.016C21.5253 22.3093 21.2853 22.5493 20.9866 22.5493Z" fill="#2490EB"/>
</svg>
