<svg width="19" height="20" viewBox="0 0 19 20" fill="none" xmlns="http://www.w3.org/2000/svg">
<path d="M9.18894 13.5718V11.6143" stroke="#2490EB" stroke-width="1.40807" stroke-linecap="round" stroke-linejoin="round"/>
<path fill-rule="evenodd" clip-rule="evenodd" d="M13.9346 4.81689C15.2292 4.81689 16.2711 5.87399 16.2711 7.17799V9.8323C14.3866 10.9434 11.8968 11.6147 9.18494 11.6147C6.47305 11.6147 3.99098 10.9434 2.10645 9.8323V7.17028C2.10645 5.86627 3.15596 4.81689 4.45062 4.81689H13.9346Z" stroke="#2490EB" stroke-width="1.40807" stroke-linecap="round" stroke-linejoin="round"/>
<path d="M11.8703 4.81333V4.53092C11.8703 3.58957 11.1119 2.82568 10.1773 2.82568H8.20083C7.26622 2.82568 6.50781 3.58957 6.50781 4.53092V4.81333" stroke="#2490EB" stroke-width="1.40807" stroke-linecap="round" stroke-linejoin="round"/>
<path d="M2.12524 12.6509L2.27003 14.5868C2.36809 15.8916 3.44748 16.9001 4.74597 16.9001H13.6316C14.9301 16.9001 16.0095 15.8916 16.1076 14.5868L16.2524 12.6509" stroke="#2490EB" stroke-width="1.40807" stroke-linecap="round" stroke-linejoin="round"/>
</svg>
