<svg width="32" height="32" viewBox="0 0 32 32" fill="none" xmlns="http://www.w3.org/2000/svg">
<path d="M22.7664 13.0167C21.12 13.0167 19.7832 14.3535 19.7832 15.9999C19.7832 17.6464 21.12 18.9832 22.7664 18.9832C24.4129 18.9832 25.7497 17.6464 25.7497 15.9999C25.7497 14.3535 24.4129 13.0167 22.7664 13.0167Z" fill="#2490EB"/>
<path d="M15.9998 19.7832C14.3534 19.7832 13.0166 21.12 13.0166 22.7664C13.0166 24.4129 14.3534 25.7497 15.9998 25.7497C17.6463 25.7497 18.9831 24.4129 18.9831 22.7664C18.9831 21.12 17.6463 19.7832 15.9998 19.7832Z" fill="#2490EB"/>
<path d="M15.0039 16C15.0039 16.5471 15.4529 16.9962 16 16.9962C16.5471 16.9962 16.9962 16.5471 16.9962 16C16.9962 15.4529 16.5471 15.0039 16 15.0039C15.4529 15.0039 15.0039 15.4529 15.0039 16Z" fill="#2490EB"/>
<path d="M9.23323 13.0167C7.58677 13.0167 6.25 14.3535 6.25 15.9999C6.25 17.6464 7.58677 18.9832 9.23323 18.9832C10.8797 18.9832 12.2165 17.6464 12.2165 15.9999C12.2165 14.3535 10.8797 13.0167 9.23323 13.0167Z" fill="#2490EB"/>
<path d="M16 0C7.17935 0 0 7.17935 0 16C0 24.8206 7.17935 32 16 32C24.8206 32 32 24.8206 32 16C32 7.17935 24.8206 0 16 0ZM16 29.0839C8.78452 29.0839 2.91613 23.2155 2.91613 16C2.91613 8.78452 8.78452 2.91613 16 2.91613C23.2155 2.91613 29.0839 8.78452 29.0839 16C29.0839 23.2155 23.2155 29.0839 16 29.0839Z" fill="#2490EB"/>
<path d="M15.9998 12.2168C17.6463 12.2168 18.9831 10.88 18.9831 9.23359C18.9831 7.58714 17.6463 6.25037 15.9998 6.25037C14.3534 6.25037 13.0166 7.58714 13.0166 9.23359C13.0166 10.88 14.3534 12.2168 15.9998 12.2168Z" fill="#2490EB"/>
<path d="M15.9999 3.94836C9.35727 3.94836 3.94824 9.3574 3.94824 16C3.94824 22.6477 9.35211 28.0516 15.9999 28.0516C22.6476 28.0516 28.0515 22.6477 28.0515 16C28.0515 9.3574 22.6476 3.94836 15.9999 3.94836ZM15.9999 5.21804C18.214 5.21804 20.0153 7.01933 20.0153 9.23353C20.0153 11.4477 18.214 13.249 15.9999 13.249C13.7857 13.249 11.9844 11.4477 11.9844 9.23353C11.9844 7.01933 13.7857 5.21804 15.9999 5.21804ZM18.0282 16C18.0282 17.12 17.1199 18.0284 15.9999 18.0284C14.8799 18.0284 13.9715 17.12 13.9715 16C13.9715 14.88 14.8799 13.9716 15.9999 13.9716C17.1199 13.9716 18.0282 14.88 18.0282 16ZM5.21792 16C5.21792 13.7858 7.01921 11.9845 9.2334 11.9845C11.4476 11.9845 13.2489 13.7858 13.2489 16C13.2489 18.2142 11.4476 20.0155 9.2334 20.0155C7.01921 20.0155 5.21792 18.2142 5.21792 16ZM15.9999 26.7819C13.7857 26.7819 11.9844 24.9806 11.9844 22.7664C11.9844 20.5522 13.7857 18.7509 15.9999 18.7509C18.214 18.7509 20.0153 20.5522 20.0153 22.7664C20.0153 24.9806 18.214 26.7819 15.9999 26.7819ZM22.7663 20.0155C20.5521 20.0155 18.7508 18.2142 18.7508 16C18.7508 13.7858 20.5521 11.9845 22.7663 11.9845C24.9805 11.9845 26.7818 13.7858 26.7818 16C26.7818 18.2142 24.9805 20.0155 22.7663 20.0155Z" fill="#2490EB"/>
</svg>
