<svg width="32" height="32" viewBox="0 0 32 32" fill="none" xmlns="http://www.w3.org/2000/svg">
<g clip-path="url(#clip0_981_1515)">
<path d="M25.6402 5.86561L26.2682 5.27524C26.6892 4.87936 26.5463 4.40543 26.4924 4.26961C26.4386 4.1338 26.2181 3.69061 25.6402 3.69061C25.0624 3.69061 24.8418 4.1338 24.788 4.26961C24.7342 4.40543 24.5912 4.87936 25.0122 5.27524L25.6402 5.86561Z" fill="#2490EB"/>
<path d="M25.6404 11.0542C28.688 11.0542 31.1675 8.57475 31.1675 5.52706C31.1675 2.47937 28.688 0 25.6404 0C22.5928 0 20.1133 2.47944 20.1133 5.52712C20.1133 8.57481 22.5928 11.0542 25.6404 11.0542ZM23.045 3.57881C23.4695 2.50769 24.4882 1.81562 25.6403 1.81562C26.7925 1.81562 27.8112 2.50769 28.2357 3.57888C28.6602 4.65 28.392 5.852 27.5527 6.64119L27.009 7.15244L27.9288 8.01737L26.6445 9.38331L25.6403 8.43925L24.6362 9.38331L23.3518 8.01737L24.2717 7.15244L23.728 6.64119C22.8887 5.852 22.6206 4.64988 23.045 3.57881Z" fill="#2490EB"/>
<path d="M14.9531 13.1719H13.0625V17.8789H8.35547V19.7695H13.0625V24.4766H14.9531V19.7695H19.6602V17.8789H14.9531V13.1719Z" fill="#2490EB"/>
<path d="M25.6405 12.9292C21.8415 12.9292 18.7025 10.0524 18.2858 6.363C16.9438 5.90069 15.5048 5.64844 14.0078 5.64844C6.74266 5.64844 0.832031 11.5591 0.832031 18.8242C0.832031 26.0893 6.74266 32 14.0078 32C21.2729 32 27.1835 26.0894 27.1835 18.8242C27.1835 16.7057 26.6807 14.7025 25.7885 12.9274C25.7392 12.9283 25.69 12.9292 25.6405 12.9292ZM21.5352 21.6445H16.8282V26.3515H11.1875V21.6445H6.48053V16.0039H11.1875V11.2969H16.8282V16.0039H21.5352V21.6445Z" fill="#2490EB"/>
</g>
<defs>
<clipPath id="clip0_981_1515">
<rect width="32" height="32" fill="white"/>
</clipPath>
</defs>
</svg>
