<svg width="32" height="32" viewBox="0 0 32 32" fill="none" xmlns="http://www.w3.org/2000/svg">
<path d="M8.41244 12.7871L8.41669 12.7962C8.59588 13.1749 9.00432 13.7243 9.43963 13.8224C9.52469 13.8415 9.61213 13.8509 9.6995 13.8509C10.4614 13.8509 11.2396 13.1246 11.7413 12.6048L11.7465 12.5993L11.7514 12.5934C11.8472 12.4759 11.9398 12.3566 12.0319 12.2366C12.1574 12.0729 12.2832 11.9098 12.4202 11.7556C12.5114 11.6533 12.6698 11.6439 12.7724 11.7356C12.8748 11.8264 12.8842 11.9856 12.793 12.0883C12.6638 12.2334 12.5457 12.3894 12.4271 12.5434C12.3323 12.6666 12.2388 12.7906 12.1404 12.9116L12.1352 12.9177L12.1306 12.9248C11.856 13.3299 11.6056 14.0798 11.5999 14.5686C11.5811 15.9935 12.2531 16.6243 13.6408 16.7901C13.852 16.8156 14.0619 16.8527 14.2753 16.8527C15.7916 16.8527 17.0939 16.1823 18.1315 15.1073C18.7785 14.4369 19.4606 13.4328 19.7549 12.5386C19.7926 12.4243 19.914 12.3226 20.0395 12.3472C20.2953 12.3972 20.5564 12.4267 20.8169 12.4267C22.0726 12.4264 22.9188 11.7395 23.4141 10.612L23.4161 10.6071L23.4179 10.6026C23.763 9.68426 23.7473 8.67763 23.1776 7.85444C22.7049 7.17126 21.9084 6.71332 21.0703 6.71332C20.0383 6.71332 19.3371 7.40844 19.0251 8.35357C18.9856 8.47301 18.86 8.54557 18.7368 8.51919C18.4601 8.46094 17.9824 8.44876 17.8261 8.74288L17.8253 8.74382L17.8231 8.749C17.8219 8.75044 17.8213 8.752 17.8205 8.754L17.8172 8.76038L17.8163 8.76219C17.6662 9.08469 18.0279 9.40919 18.2776 9.54738C18.3981 9.61394 18.4418 9.76588 18.3749 9.88638C18.3308 9.96619 18.2474 10.015 18.1562 10.015C18.1139 10.015 18.0728 10.0043 18.0357 9.98376C17.5519 9.71569 17.1345 9.18907 17.3521 8.60863L17.3752 8.57738V8.54413C17.3752 8.37632 17.3018 8.21069 17.1904 8.08569C17.0927 7.97507 16.9494 7.89613 16.7993 7.89613C16.4898 7.89613 16.2511 8.22244 16.1238 8.46788L16.1184 8.47494L16.1146 8.48213C15.9528 8.87188 15.8932 9.31201 15.9707 9.72851L15.9728 9.74051L15.9766 9.75169C15.999 9.82075 16.0167 9.89138 16.0314 9.96263L16.0337 9.97382L16.0375 9.98469C16.3335 10.8531 17.276 11.1606 18.0956 11.308C18.2311 11.3324 18.3211 11.4623 18.2967 11.5977C18.2757 11.7162 18.1722 11.8028 18.0519 11.8028C18.0373 11.8028 18.0221 11.8017 18.008 11.7989C17.4154 11.6924 16.8358 11.5295 16.3408 11.1723L16.0911 10.9923L16.0459 11.2968C15.9765 11.7633 15.8466 12.2096 15.7096 12.66L15.6919 12.7184C15.6598 12.8234 15.563 12.8959 15.4536 12.8959C15.4291 12.8959 15.4048 12.892 15.3813 12.8846C15.2493 12.8444 15.1745 12.7052 15.2147 12.5735L15.2325 12.5149C15.4651 11.7506 15.6993 10.9176 15.5533 10.1136L15.5514 10.1024L15.5478 10.0914C15.5267 10.0231 15.5081 9.95407 15.4933 9.88432L15.4902 9.87138L15.4858 9.85894C15.2596 9.24419 14.6531 8.94119 14.0254 8.94119C13.9115 8.94119 13.7974 8.95113 13.6851 8.971C12.463 9.18594 11.6223 10.5588 11.0206 11.5367C10.8175 11.8668 10.5626 12.311 10.2882 12.5817C10.1639 12.7049 10.0216 12.8043 9.83982 12.8043C9.67257 12.8043 9.53013 12.7179 9.39938 12.6224C9.31994 12.5639 9.24288 12.4984 9.16694 12.4348C9.07344 12.3571 8.98044 12.2677 8.88326 12.1946C8.80563 12.1356 8.69857 12.0625 8.59738 12.0625H8.54963L8.50776 12.0967C8.29863 12.2105 8.34613 12.5917 8.40913 12.7721L8.41244 12.7871Z" fill="#2490EB"/>
<path d="M8.88841 4.09281L10.729 4.17956C10.7355 4.18006 10.7422 4.1875 10.7487 4.1875H10.754C11.0123 4.1875 11.2219 3.97088 11.2219 3.71225C11.2219 3.58669 11.1727 3.46925 11.0921 3.38519L10.7292 2.88462C12.3124 1.94744 14.1553 1.43656 15.9998 1.43656C21.6924 1.43656 26.3239 6.06763 26.3239 11.7604C26.3239 14.2561 25.4207 16.665 23.7812 18.544C23.6116 18.7386 23.6315 19.0341 23.8261 19.2038C23.9151 19.2813 24.0244 19.3194 24.1336 19.3194C24.264 19.3194 24.3939 19.2649 24.4864 19.159C26.2746 17.1094 27.2595 14.4819 27.2595 11.76C27.2595 5.551 22.2086 0.5 15.9999 0.5C13.959 0.5 11.9204 1.0725 10.1765 2.12337L9.79598 1.60063C9.69135 1.45644 9.51373 1.38388 9.3376 1.41537C9.16148 1.44581 9.0186 1.57338 8.96885 1.74513L8.4591 3.49513C8.41891 3.63287 8.44435 3.78131 8.52816 3.89844C8.61179 4.01506 8.74473 4.08675 8.88841 4.09281Z" fill="#2490EB"/>
<path d="M6.1875 31.4995L9.0625 31.5V24.31L6.1875 24.3097V31.4995Z" fill="#2490EB"/>
<path d="M24.6126 25.4827C23.082 26.3664 21.4423 27.2853 19.6878 27.9877C19.3349 28.4667 18.7105 28.7869 17.9967 28.8489C17.9442 28.8537 17.8908 28.8558 17.836 28.8558C17.2426 28.8558 16.517 28.5925 15.6878 28.2914C15.1197 28.085 14.5316 27.8718 13.9326 27.7219C13.6823 27.659 13.5297 27.405 13.5926 27.1541C13.6551 26.9039 13.9077 26.7503 14.1601 26.8142C14.8055 26.9759 15.4437 27.2078 16.0071 27.4119C16.7745 27.691 17.4978 27.9527 17.9146 27.917C18.3664 27.8777 18.7746 27.6764 18.9549 27.4037C18.9641 27.39 18.9735 27.3769 18.984 27.3642C18.9871 27.3585 18.9885 27.3526 18.9921 27.3473C19.0559 27.2502 19.11 27.102 18.9944 26.8066C18.4776 26.414 14.9906 25.1367 13.1827 24.9029C11.8656 24.8373 10.9375 25.2827 10.0002 25.9852L10 30.2584C12 31.4109 14.5241 31.671 17.0244 30.991C19.6045 30.2884 22.3344 28.8594 25.3504 26.6223C25.8022 26.192 25.8528 25.699 25.669 25.45C25.4849 25.2007 25.0806 25.2134 24.6126 25.4827Z" fill="#2490EB"/>
<path d="M15.9999 23.0197C18.0641 23.0197 20.07 22.4594 21.824 21.3971L22.2037 21.9186C22.2924 22.0409 22.4337 22.1112 22.5816 22.1112C22.6085 22.1112 22.6354 22.1089 22.6622 22.1044C22.8382 22.0736 22.981 21.9456 23.0309 21.7743L23.5405 20.0247C23.5807 19.8867 23.5553 19.7379 23.4715 19.6213C23.3879 19.5047 23.2549 19.4326 23.1114 19.4261L21.2712 19.3474C21.0902 19.3319 20.9236 19.4355 20.8389 19.5936C20.754 19.7517 20.767 19.9445 20.8729 20.0897L21.2712 20.6373C19.68 21.5847 17.8659 22.0841 15.9999 22.0841C10.3072 22.0841 5.67567 17.4526 5.67567 11.7599C5.67567 9.26381 6.57886 6.85475 8.21817 4.97569C8.38798 4.781 8.36817 4.48569 8.17348 4.31562C7.9783 4.14587 7.68348 4.16594 7.5133 4.36069C5.72498 6.40987 4.74023 9.03762 4.74023 11.7599C4.7403 17.9684 9.7913 23.0197 15.9999 23.0197Z" fill="#2490EB"/>
</svg>
