<svg width="32" height="32" viewBox="0 0 32 32" fill="none" xmlns="http://www.w3.org/2000/svg">
<path d="M12 18.5H11V20H9.5V21H11V22.5H12V21H13.5V20H12V18.5Z" fill="#2490EB"/>
<path d="M16.9795 5.58301C16.0605 6.14801 15.5 7.14101 15.5 8.23601V8.77951C15.5 11.629 17.302 14.1005 20 14.976C22.698 14.1005 24.5 11.629 24.5 8.77951V7.50001H23.6055C21.25 7.50001 18.966 6.83801 16.9795 5.58301ZM21 13C21 12.796 20.6105 12.5 20 12.5C19.3895 12.5 19 12.796 19 13H18C18 12.159 18.8785 11.5 20 11.5C21.1215 11.5 22 12.159 22 13H21Z" fill="#2490EB"/>
<path d="M17.5 20.5C17.5 17.1915 14.8085 14.5 11.5 14.5C8.1915 14.5 5.5 17.1915 5.5 20.5C5.5 23.8085 8.1915 26.5 11.5 26.5C14.8085 26.5 17.5 23.8085 17.5 20.5ZM11.5 25.5C8.743 25.5 6.5 23.257 6.5 20.5C6.5 17.743 8.743 15.5 11.5 15.5C14.257 15.5 16.5 17.743 16.5 20.5C16.5 23.257 14.257 25.5 11.5 25.5Z" fill="#2490EB"/>
<path d="M11.5 16.5C9.2945 16.5 7.5 18.2945 7.5 20.5C7.5 22.7055 9.2945 24.5 11.5 24.5C13.7055 24.5 15.5 22.7055 15.5 20.5C15.5 18.2945 13.7055 16.5 11.5 16.5ZM13 22V23.5H10V22H8.5V19H10V17.5H13V19H14.5V22H13Z" fill="#2490EB"/>
<path d="M5.883 24.6595L2.0645 27.777C1.7055 28.0695 1.5 28.5025 1.5 28.9655C1.5 29.812 2.1885 30.5 3.0345 30.5C3.497 30.5 3.9305 30.2945 4.223 29.936L7.3405 26.117C6.786 25.705 6.295 25.2145 5.883 24.6595ZM3 29.5C2.724 29.5 2.5 29.276 2.5 29C2.5 28.724 2.724 28.5 3 28.5C3.276 28.5 3.5 28.724 3.5 29C3.5 29.276 3.276 29.5 3 29.5Z" fill="#2490EB"/>
<path d="M14.5 8.78V8.2365C14.5 6.6665 15.372 5.2555 16.7765 4.553L17.0365 4.4235L17.2775 4.5845C19.157 5.8375 21.3455 6.5 23.6055 6.5H25.5V8.78C25.5 9.709 25.3285 10.6005 25.0205 11.428C25.9535 10.3525 26.5 8.9615 26.5 7.5V6.5415C26.5 5.0245 25.414 3.743 23.918 3.4935L23.7895 3.472L22.911 2.7695C21.888 1.9505 20.603 1.5 19.2925 1.5C16.0985 1.5 13.5 4.0985 13.5 7.2925V7.5C13.5 8.9615 14.0465 10.352 14.9795 11.427C14.671 10.5995 14.5 9.7085 14.5 8.78Z" fill="#2490EB"/>
<path d="M26.9934 18.9785L23.0934 17.462C22.2129 17.1195 21.6214 16.3305 21.5204 15.409C21.0869 15.6385 20.6289 15.8335 20.1429 15.979L19.9999 16.022L19.8564 15.979C19.3714 15.8335 18.9139 15.639 18.4809 15.41C18.4089 16.0605 18.0869 16.6465 17.5874 17.057C18.1654 18.0745 18.4999 19.248 18.4999 20.5C18.4999 23.048 17.1274 25.2755 15.0869 26.5H26.4999V21.5H27.4999V26.5H30.4999V24.1045C30.4999 21.819 29.1234 19.8065 26.9934 18.9785ZM19.9999 18.5C20.2759 18.5 20.4999 18.724 20.4999 19C20.4999 19.276 20.2759 19.5 19.9999 19.5C19.7239 19.5 19.4999 19.276 19.4999 19C19.4999 18.724 19.7239 18.5 19.9999 18.5ZM18.4999 25.5C18.2239 25.5 17.9999 25.276 17.9999 25C17.9999 24.724 18.2239 24.5 18.4999 24.5C18.7759 24.5 18.9999 24.724 18.9999 25C18.9999 25.276 18.7759 25.5 18.4999 25.5ZM18.9999 18C18.7239 18 18.4999 17.776 18.4999 17.5C18.4999 17.224 18.7239 17 18.9999 17C19.2759 17 19.4999 17.224 19.4999 17.5C19.4999 17.776 19.2759 18 18.9999 18ZM21.4999 25.5C21.2239 25.5 20.9999 25.276 20.9999 25C20.9999 24.724 21.2239 24.5 21.4999 24.5C21.7759 24.5 21.9999 24.724 21.9999 25C21.9999 25.276 21.7759 25.5 21.4999 25.5ZM20.9999 23.5C20.1729 23.5 19.4999 22.827 19.4999 22C19.4999 21.173 20.1729 20.5 20.9999 20.5C21.8269 20.5 22.4999 21.173 22.4999 22C22.4999 22.827 21.8269 23.5 20.9999 23.5ZM22.4999 20C22.2239 20 21.9999 19.776 21.9999 19.5C21.9999 19.224 22.2239 19 22.4999 19C22.7759 19 22.9999 19.224 22.9999 19.5C22.9999 19.776 22.7759 20 22.4999 20ZM23.4999 24.5C23.2239 24.5 22.9999 24.276 22.9999 24C22.9999 23.724 23.2239 23.5 23.4999 23.5C23.7759 23.5 23.9999 23.724 23.9999 24C23.9999 24.276 23.7759 24.5 23.4999 24.5Z" fill="#2490EB"/>
<path d="M21 22.5C21.2761 22.5 21.5 22.2761 21.5 22C21.5 21.7239 21.2761 21.5 21 21.5C20.7239 21.5 20.5 21.7239 20.5 22C20.5 22.2761 20.7239 22.5 21 22.5Z" fill="#2490EB"/>
</svg>
