<svg width="32" height="32" viewBox="0 0 32 32" fill="none" xmlns="http://www.w3.org/2000/svg">
<path d="M29 8.5C29 8.23478 28.8946 7.98043 28.7071 7.79289C28.5196 7.60536 28.2652 7.5 28 7.5H4C3.73478 7.5 3.48043 7.60536 3.29289 7.79289C3.10536 7.98043 3 8.23478 3 8.5V11.5H29V8.5Z" fill="#2490EB"/>
<path d="M17 20.5H15V22.5H13V24.5H15V26.5H17V24.5H19V22.5H17V20.5Z" fill="#2490EB"/>
<path d="M10 4.8335C10.0007 4.21482 10.2467 3.62167 10.6842 3.1842C11.1217 2.74672 11.7148 2.50066 12.3335 2.5H19.6665C20.2852 2.50066 20.8783 2.74672 21.3158 3.1842C21.7533 3.62167 21.9993 4.21482 22 4.8335V6.5H23V4.5C22.9992 3.70459 22.6829 2.94199 22.1204 2.37956C21.558 1.81712 20.7954 1.50079 20 1.5H12C11.2046 1.50079 10.442 1.81712 9.87956 2.37956C9.31712 2.94199 9.00079 3.70459 9 4.5V6.5H10V4.8335Z" fill="#2490EB"/>
<path d="M27.5 18H25.5V15.5H6.5V18H4.5V15.5H3V29.5C3 29.7652 3.10536 30.0196 3.29289 30.2071C3.48043 30.3946 3.73478 30.5 4 30.5H28C28.2652 30.5 28.5196 30.3946 28.7071 30.2071C28.8946 30.0196 29 29.7652 29 29.5V15.5H27.5V18ZM22 26.5C22 27.0304 21.7893 27.5391 21.4142 27.9142C21.0391 28.2893 20.5304 28.5 20 28.5H12C11.4696 28.5 10.9609 28.2893 10.5858 27.9142C10.2107 27.5391 10 27.0304 10 26.5V20.5C10 19.9696 10.2107 19.4609 10.5858 19.0858C10.9609 18.7107 11.4696 18.5 12 18.5H20C20.5304 18.5 21.0391 18.7107 21.4142 19.0858C21.7893 19.4609 22 19.9696 22 20.5V26.5Z" fill="#2490EB"/>
<path d="M30 12.5H2C1.72386 12.5 1.5 12.7239 1.5 13V14C1.5 14.2761 1.72386 14.5 2 14.5H30C30.2761 14.5 30.5 14.2761 30.5 14V13C30.5 12.7239 30.2761 12.5 30 12.5Z" fill="#2490EB"/>
</svg>
