<svg width="26" height="30" viewBox="0 0 26 30" fill="none" xmlns="http://www.w3.org/2000/svg">
<path fill-rule="evenodd" clip-rule="evenodd" d="M5.497 7.99894e-05C5.35948 7.99894e-05 5.27394 0.149485 5.3427 0.268635L7.6601 4.28424C7.79872 4.52441 7.70778 4.81718 7.47456 4.96684C7.29449 5.08238 7.11889 5.213 6.94721 5.36039C5.89411 6.31719 5.20601 7.59534 4.72551 8.81549C4.24414 10.0379 3.99796 11.1058 3.99796 11.9942C3.99796 12.5561 4.44238 13 5.00286 13C5.56334 13 6.00676 12.5561 6.00676 11.9942C6.00676 11.7521 6.05676 11.4477 6.15227 11.0176C6.24778 10.5876 6.39267 10.0701 6.59563 9.55474C6.99846 8.53174 7.61503 7.46709 8.34953 6.80474C9.53358 5.87389 10.9693 5.87484 12.0282 6.47076L14.4374 5.78131C14.3482 5.70693 14.2585 5.6282 14.1689 5.54986C13.9602 5.3675 13.8975 5.03221 14.0361 4.79206L16.6474 0.26861C16.7162 0.149455 16.6297 5.50151e-05 16.4921 5.50151e-05H14.9931C14.6839 5.50151e-05 14.3978 0.164725 14.2431 0.43267L11.9941 4.33012V0.50002C11.9941 0.22302 11.772 1.99676e-05 11.4951 1.99676e-05H10.4951C10.2182 1.99676e-05 9.99512 0.22302 9.99512 0.50002V4.19922C9.21542 3.02377 8.46706 1.73372 7.72851 0.43457C7.59212 0.194635 7.25844 0 6.98242 0L5.497 7.99894e-05ZM19.031 5.51008C16.5143 6.01823 14.0962 6.91438 12.1315 7.48078C11.9511 7.53078 11.8232 7.48443 11.7067 7.40949C10.9985 6.92128 9.93194 6.84979 8.986 7.58137C8.73849 7.81453 8.48425 8.14047 8.24675 8.51107H8.49577C10.201 8.51107 11.7312 9.54531 12.3649 11.1273L13.0651 12.8743H13.0661C13.273 13.3907 13.8467 13.6367 14.365 13.43C14.8827 13.2228 15.1281 12.6513 14.9216 12.1351V12.1341C14.6055 11.3422 14.2775 10.4788 13.9431 9.78936C13.8228 9.54228 13.9245 9.24442 14.1706 9.12236C15.8211 8.32277 17.3678 7.89022 19.1871 7.49347C19.7346 7.38413 20.0794 6.86587 19.9703 6.32062C19.8556 5.58507 19.3505 5.49603 19.031 5.51008ZM1 6.51693C0.4415 6.51693 0 6.95792 0 7.51398C0 8.07008 0.44151 8.51103 1 8.51103H3.77345C3.78172 8.48977 4.3516 7.15623 4.73925 6.51688L1 6.51693ZM18.3045 8.72493C17.1567 8.98528 16.0718 9.37918 15.0487 9.84603C15.3283 10.478 15.6021 11.1433 15.8494 11.763V11.764C16.2564 12.7826 15.754 13.9519 14.7352 14.3588C13.716 14.7654 12.5456 14.2651 12.1376 13.2465L11.4383 11.4994C10.9546 10.2919 9.79945 9.51113 8.49595 9.51113H7.70885C7.64574 9.64827 7.57846 9.78468 7.52428 9.92227C7.34602 10.3749 7.21468 10.8479 7.12877 11.2348C7.04285 11.6216 7.0067 11.9605 7.0067 11.9945C7.0067 13.0964 6.10365 14.0004 5.0028 14.0004C3.90195 14.0004 2.9989 13.0964 2.9989 11.9945C2.9989 11.5092 3.0596 11.0002 3.17175 10.4691C2.11665 12.0538 1.4989 13.9549 1.4989 16.0001C1.4989 18.7344 2.39815 22.2096 4.7313 25.0361C7.0645 27.8628 10.8513 30 16.4628 30C17.9025 30 19.0209 29.3933 19.7665 28.4355C20.2957 27.7557 20.6528 26.9164 20.9032 25.9853C20.7665 25.994 20.6289 26 20.4901 26C16.9173 26 13.9931 23.0744 13.9931 19.5C13.9931 15.9255 16.9174 13 20.4901 13C20.6617 13 20.8315 13.0092 20.9999 13.0224C20.4824 11.3607 19.5396 9.88923 18.3045 8.72493ZM20.4998 14.0004C17.4681 14.0004 14.9998 16.4688 14.9998 19.5004C14.9998 22.5321 17.4681 25.0004 20.4998 25.0004C23.5315 25.0004 25.9998 22.5321 25.9998 19.5004C25.9998 16.4688 23.5315 14.0004 20.4998 14.0004ZM6.0153 15.5004C6.24756 15.5091 6.45026 15.6801 6.48991 15.9184C6.48991 15.9184 6.86211 17.9578 7.93036 20.0005H9.49481C9.77084 20.0005 9.99481 20.2243 9.99481 20.5005C9.99481 20.7766 9.77084 21.0005 9.49481 21.0005H8.51631C9.19776 22.0379 10.083 22.9852 11.2185 23.5532C11.4654 23.6767 11.5656 23.9771 11.4421 24.2241C11.3187 24.4711 11.0181 24.5713 10.7712 24.4477C10.3079 24.216 9.88345 23.9372 9.49485 23.6255V24.5005C9.49485 24.7766 9.27185 25.0005 8.99582 25.0005C8.7198 25.0005 8.49582 24.7766 8.49582 24.5005V22.6704C7.58887 21.6522 6.94007 20.4638 6.48412 19.3774L5.96067 20.686C5.85807 20.942 5.56733 21.0666 5.31127 20.9643C5.05535 20.8617 4.93174 20.5711 5.03393 20.315L5.97042 17.9712C5.6237 16.8659 5.50363 16.0826 5.50363 16.0826C5.45838 15.8102 5.64254 15.5527 5.91477 15.5074C5.9488 15.5017 5.98212 15.4992 6.0153 15.5004ZM20.4998 16.0004C21.3221 16.0004 21.9998 16.6781 21.9998 17.5004V18.0004H22.4998C23.3221 18.0004 23.9998 18.6781 23.9998 19.5004C23.9998 20.3228 23.3221 21.0004 22.4998 21.0004H21.9998V21.5004C21.9998 22.3228 21.3221 23.0004 20.4998 23.0004C19.6775 23.0004 18.9998 22.3228 18.9998 21.5004V21.0004H18.4998C17.6775 21.0004 16.9998 20.3228 16.9998 19.5004C16.9998 18.6781 17.6775 18.0004 18.4998 18.0004H18.9998V17.5004C18.9998 16.6781 19.6775 16.0004 20.4998 16.0004Z" fill="#2490EB"/>
</svg>
