<svg width="32" height="32" viewBox="0 0 32 32" fill="none" xmlns="http://www.w3.org/2000/svg">
<path d="M27.8745 14.79L26.1695 11.565C26.0748 11.391 26.0396 11.1908 26.0695 10.995C26.2545 9.71498 25.7045 7.99999 25.4495 7.29999C25.9507 6.60358 26.2312 5.77268 26.2545 4.91498C26.2597 4.79678 26.2221 4.68068 26.1487 4.58793C26.0752 4.49519 25.9708 4.43202 25.8545 4.40998L16.0945 2.46498C16.063 2.46083 16.0313 2.45915 15.9995 2.45999C14.7523 2.46661 13.5209 2.73877 12.3871 3.25837C11.2532 3.77796 10.2431 4.53307 9.42382 5.47345C8.60454 6.41383 7.99494 7.51791 7.63558 8.71222C7.27621 9.90653 7.17532 11.1637 7.33963 12.4C7.39202 14.0846 7.8255 15.7353 8.60748 17.2283C9.38946 18.7213 10.4996 20.0177 11.8545 21.02C12.0295 21.1188 12.1756 21.2617 12.2783 21.4345C12.3809 21.6073 12.4365 21.804 12.4395 22.005C12.4396 22.5399 12.2275 23.053 11.8497 23.4317C11.472 23.8104 10.9594 24.0237 10.4245 24.025H9.21954C8.23782 24.0264 7.29679 24.4174 6.60308 25.1121C5.90937 25.8067 5.51967 26.7483 5.51953 27.73V29.96C5.51931 30.0257 5.53208 30.0908 5.55713 30.1516C5.58218 30.2124 5.619 30.2676 5.66547 30.314C5.71195 30.3605 5.76716 30.3973 5.82792 30.4224C5.88869 30.4474 5.95381 30.4602 6.01953 30.46H25.9745C26.0406 30.4599 26.106 30.4468 26.167 30.4214C26.228 30.3959 26.2833 30.3586 26.3298 30.3117C26.3763 30.2647 26.413 30.209 26.4378 30.1478C26.4627 30.0866 26.4752 30.0211 26.4745 29.955L26.4545 27.69C26.4407 26.7154 26.0447 25.7851 25.3517 25.0996C24.6587 24.4142 23.7243 24.0282 22.7495 24.025H20.1845C19.4318 24.0491 19.1833 22.8647 20.0146 22.805H22.7045C23.2327 22.8 23.7542 22.6856 24.2359 22.469C24.7177 22.2524 25.1493 21.9382 25.5036 21.5464C25.8578 21.1545 26.127 20.6935 26.2941 20.1924C26.4612 19.6913 26.5226 19.161 26.4745 18.6349L26.4745 17.65V16.96C26.7359 16.9727 26.996 16.9165 27.2287 16.7969C27.4614 16.6773 27.6586 16.4987 27.8004 16.2788C27.9423 16.0589 28.0238 15.8056 28.0368 15.5443C28.0498 15.283 27.9939 15.0228 27.8745 14.79ZM9.99953 12.115C9.93381 12.1152 9.86869 12.1024 9.80792 12.0774C9.74716 12.0523 9.69195 12.0155 9.64547 11.969C9.599 11.9226 9.56218 11.8674 9.53713 11.8066C9.51208 11.7458 9.49931 11.6807 9.49953 11.615C9.49953 7.78498 12.9195 5.35999 13.0645 5.25999C13.1734 5.18737 13.3063 5.16022 13.4349 5.18434C13.5635 5.20846 13.6775 5.28194 13.7526 5.38907C13.8278 5.49619 13.858 5.62845 13.8368 5.75757C13.8157 5.88669 13.7449 6.00241 13.6395 6.07998C13.6045 6.09998 10.4995 8.30998 10.4995 11.615C10.4998 11.6807 10.487 11.7458 10.4619 11.8066C10.4369 11.8674 10.4001 11.9226 10.3536 11.969C10.3071 12.0155 10.2519 12.0523 10.1911 12.0774C10.1304 12.1024 10.0653 12.1152 9.99953 12.115ZM22.7045 21.805H20.0145C19.6095 21.806 19.2215 21.9677 18.9356 22.2546C18.6497 22.5414 18.4893 22.93 18.4895 23.335C18.491 23.7836 18.6702 24.2134 18.9879 24.5302C19.3056 24.847 19.7359 25.0249 20.1845 25.025H22.7495C23.4611 25.0272 24.1433 25.3088 24.6493 25.8091C25.1552 26.3094 25.4444 26.9885 25.4545 27.7L25.4695 29.46H18.0495V22.865C18.0508 22.136 18.341 21.4373 18.8564 20.9219C19.3719 20.4064 20.0706 20.1163 20.7995 20.115H25.2595C25.0461 20.6161 24.6902 21.0434 24.2359 21.3438C23.7817 21.6443 23.2492 21.8047 22.7045 21.805ZM26.9795 15.725C26.9382 15.797 26.8785 15.8568 26.8064 15.8981C26.7343 15.9394 26.6526 15.9607 26.5695 15.96H25.9745C25.9088 15.9598 25.8437 15.9725 25.7829 15.9976C25.7222 16.0226 25.667 16.0594 25.6205 16.1059C25.574 16.1524 25.5372 16.2076 25.5121 16.2684C25.4871 16.3291 25.4743 16.3943 25.4745 16.46V17.64H20.5195C19.2224 17.6409 17.9786 18.1562 17.061 19.0729C16.1433 19.9896 15.6267 21.2329 15.6245 22.53V29.46H6.51953V27.73C6.51889 27.0132 6.80299 26.3256 7.30933 25.8183C7.81568 25.311 8.50279 25.0257 9.21954 25.025H10.4245C12.5411 25.1108 14.3252 22.4803 12.9746 20.6899C13.9045 20.025 14.7845 18.83 15.6895 17.015C16.8416 17.6852 18.5344 17.2243 18.5495 15.7099C18.5477 15.5785 18.4942 15.4532 18.4006 15.3609C18.307 15.2687 18.1809 15.217 18.0495 15.217C17.9181 15.217 17.792 15.2687 17.6984 15.361C17.6049 15.4533 17.5514 15.5786 17.5495 15.71C17.5489 15.8716 17.4844 16.0264 17.3702 16.1406C17.2559 16.2549 17.1011 16.3194 16.9395 16.32C16.4844 16.318 16.0487 16.136 15.7273 15.8137C15.406 15.4914 15.2252 15.0551 15.2245 14.6V12.88C15.2284 12.6424 15.3046 12.4115 15.4429 12.2183C15.5812 12.025 15.7751 11.8784 15.9988 11.7981C16.2225 11.7177 16.4653 11.7074 16.695 11.7685C16.9247 11.8296 17.1303 11.9592 17.2845 12.14C17.6961 12.5297 17.332 13.3397 18.0495 13.38C18.9018 13.2962 18.4826 12.112 18.1795 11.675C18.5597 10.4092 20.3422 9.51867 21.6745 9.40999C22.7786 9.26153 23.8148 8.79211 24.6545 8.05999C24.9821 8.95201 25.1266 9.90088 25.0795 10.85C25.0185 11.2568 25.0904 11.6724 25.2845 12.035L26.9895 15.255C27.0288 15.3275 27.0485 15.4089 27.0468 15.4913C27.045 15.5737 27.0218 15.6542 26.9795 15.725Z" fill="#2490EB"/>
</svg>
