<svg width="32" height="32" viewBox="0 0 32 32" fill="none" xmlns="http://www.w3.org/2000/svg">
<path d="M27.3119 0.93375C25.2431 -0.614437 22.2994 -0.19375 20.75 1.87188C19.1994 3.93938 19.62 6.88375 21.6875 8.43438C22.0194 8.68375 22.2725 9.00625 22.4312 9.37188H21.625C20.0742 9.37188 18.8125 8.11019 18.8125 6.55938H16.9375C16.9375 8.09113 17.6761 9.45344 18.8158 10.3094C17.6761 11.1653 16.9374 12.5276 16.9375 14.0594V18.9394C16.6313 18.8944 16.3181 18.8719 16 18.8719C15.6819 18.8719 15.3687 18.8944 15.0625 18.9394V14.0594C15.0625 12.5276 14.3239 11.1653 13.1842 10.3094C14.3239 9.4535 15.0625 8.09113 15.0625 6.55938H13.1875C13.1875 8.11019 11.9258 9.37188 10.375 9.37188H9.56875C9.7275 9.00625 9.98062 8.68375 10.3131 8.43438C12.38 6.88375 12.8006 3.93938 11.25 1.87125C9.70062 -0.19375 6.75688 -0.614437 4.68687 0.934375C1.70812 3.16875 0 6.58563 0 10.3094C0 14.0331 1.70812 17.45 4.68687 19.6844L4.6875 19.685C6.75813 21.2356 9.70125 20.81 11.25 18.7469C12.8006 16.6794 12.38 13.735 10.3125 12.1844C9.98063 11.935 9.7275 11.6125 9.56875 11.2469H10.375C11.9258 11.2469 13.1875 12.5086 13.1875 14.0594V19.5063C10.9719 20.5606 9.4375 22.8219 9.4375 25.4344C9.4375 29.0531 12.3813 31.9969 16 31.9969C19.6187 31.9969 22.5625 29.0531 22.5625 25.4344C22.5625 22.8219 21.0281 20.5606 18.8125 19.5063V14.0594C18.8125 12.5086 20.0742 11.2469 21.625 11.2469H22.4312C22.2725 11.6126 22.0194 11.9351 21.6869 12.1844C19.62 13.7351 19.1994 16.6794 20.75 18.7476C22.2975 20.8088 25.2406 21.2369 27.3125 19.6851L27.3131 19.6844C30.2919 17.4501 32 14.0332 32 10.3094C32 6.58569 30.2919 3.16875 27.3119 0.93375ZM18.8125 26.3719H16.9375V28.2469H15.0625V26.3719H13.1875V24.4969H15.0625V22.6219H16.9375V24.4969H18.8125V26.3719Z" fill="#2490EB"/>
</svg>
