<svg width="32" height="32" viewBox="0 0 32 32" fill="none" xmlns="http://www.w3.org/2000/svg">
<path d="M15.0746 15C14.2883 14.6398 13.4017 14.5621 12.5646 14.78C12.5436 14.2108 12.3161 13.6687 11.9246 13.255C10.2904 11.798 7.77673 12.4239 7.01965 13.5299C6.06715 14.9496 6.80015 16.0402 6.74462 17.495C6.8207 18.6077 6.57418 19.7188 6.03462 20.695L3.14465 25.785C3.093 25.8738 3.07053 25.9766 3.08039 26.0789C3.09026 26.1811 3.13197 26.2777 3.19965 26.355L6.17965 29.825C6.22716 29.8792 6.28555 29.9228 6.35102 29.9529C6.41649 29.9831 6.48757 29.9991 6.55965 30C6.64837 30.0005 6.7356 29.9771 6.81214 29.9322C6.88869 29.8873 6.95174 29.8227 6.99465 29.745L10.4946 23.595C11.2435 22.281 12.4367 21.2775 13.8596 20.765C14.7595 20.4747 15.683 20.1936 16.1146 19.3599C16.4915 18.5858 16.5767 17.7018 16.3546 16.87C16.2945 16.4825 16.1484 16.1133 15.9269 15.7897C15.7053 15.4661 15.4141 15.1963 15.0746 15Z" fill="#2490EB"/>
<path d="M28.9155 6.91498L28.1104 2.40998C28.0956 2.33158 28.0624 2.25783 28.0134 2.19484C27.9645 2.13184 27.9012 2.0814 27.8289 2.04769C27.7566 2.01398 27.6773 1.99796 27.5976 2.00097C27.5179 2.00397 27.44 2.02591 27.3705 2.06498L21.2254 5.57998C19.9142 6.33391 18.3756 6.59123 16.8904 6.30498L16.3104 6.19498C14.2821 5.50962 12.9845 7.36534 12.7655 8.39002C12.0398 10.2241 13.4523 11.6937 14.9605 12.1149C13.7435 14.445 16.6714 16.2923 18.1404 16.2049C19.4233 16.2826 20.471 15 20.7304 14.0399C20.9635 13.4289 21.2601 12.844 21.6154 12.295C22.0938 11.4849 22.7743 10.8129 23.5904 10.345L28.6705 7.43998C28.7603 7.38822 28.8319 7.31006 28.8758 7.21613C28.9196 7.1222 28.9335 7.01705 28.9155 6.91498Z" fill="#2490EB"/>
<path d="M11.3447 8.21387C11.4104 8.21388 11.4754 8.20096 11.5361 8.17584C11.5968 8.15072 11.6519 8.11389 11.6983 8.06746C11.7448 8.02103 11.7816 7.9659 11.8067 7.90523C11.8318 7.84456 11.8447 7.77953 11.8447 7.71386V4.76416C11.8447 4.63155 11.792 4.50437 11.6983 4.41061C11.6045 4.31684 11.4773 4.26416 11.3447 4.26416C11.2121 4.26416 11.0849 4.31684 10.9912 4.41061C10.8974 4.50437 10.8447 4.63155 10.8447 4.76416V7.71386C10.8447 7.77953 10.8576 7.84456 10.8828 7.90523C10.9079 7.9659 10.9447 8.02102 10.9911 8.06746C11.0376 8.11389 11.0927 8.15072 11.1534 8.17584C11.214 8.20096 11.2791 8.21388 11.3447 8.21387Z" fill="#2490EB"/>
<path d="M8.84769 9.27098C8.94482 9.35879 9.07252 9.405 9.20335 9.39969C9.33418 9.39438 9.45771 9.33797 9.54741 9.24258C9.63711 9.14719 9.68582 9.02042 9.68307 8.88951C9.68032 8.7586 9.62635 8.63399 9.53273 8.54244L7.31205 6.45457C7.21492 6.36676 7.08722 6.32054 6.95639 6.32585C6.82556 6.33116 6.70203 6.38757 6.61233 6.48296C6.52263 6.57835 6.47393 6.70512 6.47667 6.83603C6.47942 6.96694 6.5334 7.09155 6.62701 7.1831L8.84769 9.27098Z" fill="#2490EB"/>
<path d="M5.04797 11.6938H8.08044C8.21136 11.6913 8.33605 11.6375 8.42773 11.544C8.51942 11.4505 8.57077 11.3248 8.57077 11.1938C8.57076 11.0629 8.5194 10.9372 8.42771 10.8437C8.33602 10.7502 8.21133 10.6964 8.0804 10.6938H5.04797C4.91704 10.6964 4.79235 10.7502 4.70066 10.8437C4.60898 10.9372 4.55762 11.0629 4.55762 11.1938C4.55762 11.3248 4.60898 11.4505 4.70066 11.544C4.79235 11.6375 4.91704 11.6913 5.04797 11.6938Z" fill="#2490EB"/>
<path d="M17.0127 19.709C16.947 19.709 16.882 19.7219 16.8213 19.747C16.7607 19.7721 16.7055 19.809 16.6591 19.8554C16.6127 19.9018 16.5758 19.957 16.5507 20.0176C16.5256 20.0783 16.5127 20.1433 16.5127 20.209V23.2246C16.5127 23.3572 16.5654 23.4844 16.6591 23.5782C16.7529 23.6719 16.8801 23.7246 17.0127 23.7246C17.1453 23.7246 17.2725 23.6719 17.3662 23.5782C17.46 23.4844 17.5127 23.3572 17.5127 23.2246V20.209C17.5127 20.1433 17.4998 20.0783 17.4747 20.0176C17.4496 19.957 17.4127 19.9018 17.3663 19.8554C17.3199 19.809 17.2647 19.7721 17.2041 19.747C17.1434 19.7219 17.0784 19.709 17.0127 19.709Z" fill="#2490EB"/>
<path d="M19.5183 18.6265C19.4233 18.5363 19.2968 18.4871 19.1658 18.4892C19.0349 18.4914 18.91 18.5448 18.818 18.638C18.726 18.7312 18.6743 18.8568 18.6738 18.9877C18.6734 19.1187 18.7244 19.2446 18.8157 19.3384L21.0696 21.564C21.1646 21.6541 21.2912 21.7033 21.4221 21.7011C21.553 21.699 21.6779 21.6455 21.7698 21.5524C21.8618 21.4592 21.9136 21.3336 21.914 21.2027C21.9145 21.0718 21.8636 20.9459 21.7722 20.852L19.5183 18.6265Z" fill="#2490EB"/>
<path d="M23.4759 16.2617H20.294C20.1631 16.2643 20.0384 16.3181 19.9467 16.4116C19.8551 16.5051 19.8037 16.6308 19.8037 16.7617C19.8037 16.8927 19.8551 17.0184 19.9468 17.1119C20.0385 17.2054 20.1632 17.2592 20.2941 17.2617H23.4759C23.6068 17.2592 23.7315 17.2054 23.8232 17.1119C23.9149 17.0184 23.9663 16.8927 23.9663 16.7617C23.9663 16.6308 23.9149 16.5051 23.8232 16.4116C23.7315 16.3181 23.6068 16.2643 23.4759 16.2617Z" fill="#2490EB"/>
</svg>
