<svg width="147" height="112" viewBox="0 0 147 112" fill="none" xmlns="http://www.w3.org/2000/svg">
<g clip-path="url(#clip0_1184_7766)">
<path d="M146.937 66.8237C146.82 68.0764 146.531 69.301 145.992 70.4373C144.733 73.1027 142.209 75.0246 139.448 76.0697C132.068 78.8655 124.242 76.7009 117.284 73.7887C108.029 69.9155 99.8937 64.7026 91.9456 58.6817C89.1164 56.5382 86.2492 54.4381 83.4958 52.1992C75.0573 45.3324 67.6068 36.8187 59.7178 29.3136C56.8365 26.5724 53.8934 23.771 52.0649 20.2429C49.7079 15.6936 49.8597 7.78023 53.6109 3.88599C57.3186 0.0380444 63.871 -0.339315 68.8577 0.186744C71.254 0.439252 73.6068 1.00038 75.9273 1.64568C98.9436 8.05658 118.925 22.9265 134.716 40.8251C140.418 47.2879 145.838 54.6303 146.858 63.1805C147.001 64.3841 147.049 65.6172 146.937 66.8237ZM90.654 52.9343C92.0651 54.0495 93.2162 55.089 94.491 55.942C97.9021 58.2229 101.347 60.459 104.817 62.6503C109.901 65.8599 115.185 68.6726 120.983 70.4023C124.058 71.3197 127.129 72.2554 130.226 73.0999C130.935 73.2935 131.797 73.3342 132.486 73.1195C134.494 72.4925 136.502 71.8135 138.412 70.9423C140.602 69.9435 142.94 67.4297 142.327 63.9156C142.079 62.4973 141.777 61.0861 141.597 59.658C141.372 57.868 140.93 56.1369 139.946 54.6387C138.428 52.3269 136.994 49.9014 135.131 47.8883C130.76 43.1678 126.175 38.6437 121.635 34.0804C119.053 31.4865 116.459 28.8969 113.734 26.4574C112.45 25.3085 111.225 23.9351 109.275 23.4512C108.908 23.865 108.457 24.2171 108.213 24.6772C107.119 26.7324 106.055 28.8043 105.032 30.896C103.573 33.8769 102.424 37.0319 100.013 39.463C99.6322 39.8474 99.3891 40.3776 99.1136 40.8574C97.1797 44.2298 95.0869 47.4942 92.5458 50.4541C91.9723 51.1205 91.4748 51.8527 90.654 52.9343ZM104.723 20.4533C104.149 18.986 102.974 18.3603 101.794 17.7319C99.7377 16.6377 97.5971 15.6711 95.6519 14.4058C91.5985 11.7713 86.9323 10.5732 82.5935 8.61631C80.6778 7.75217 78.6567 7.1223 76.7298 6.28061C75.0924 5.56657 73.4649 4.88059 71.6658 4.70804C67.8865 4.34612 64.1633 4.27597 60.4571 5.48801C57.1921 6.55696 55.5097 8.12111 55.1794 11.4809C54.6257 17.095 56.3544 21.7327 61.254 24.9522C62.3573 25.676 63.3819 26.564 64.2997 27.5151C67.9174 31.2663 71.5745 34.9866 75.0334 38.8808C78.5148 42.7989 82.6314 46.0198 86.3658 49.6531C86.5823 49.8635 86.9575 49.9126 87.2457 50.0319C94.7496 41.2193 100.037 31.1513 104.723 20.4533Z" fill="#BEE4FF" fill-opacity="0.6"/>
<path d="M0.0842362 86.2317C0.341441 74.455 0.980938 62.6909 1.41102 50.9212C1.65276 44.3111 1.83126 37.6982 1.83688 31.0839C1.8425 25.0405 0.306303 18.2102 3.47006 12.8598C6.56354 7.62586 10.6915 4.17912 16.8644 3.23642C19.033 2.90536 21.1581 2.91658 23.3085 4.0697C27.8497 6.5036 31.116 8.78179 33.2453 13.7099C35.22 18.2789 35.6262 23.4273 35.6642 28.3484C35.7373 38.0994 34.752 47.8336 34.7942 57.5846C34.8293 65.728 35.5841 73.8616 35.4393 82.005C35.2383 93.3889 34.4105 107.553 21.2256 111.38C13.9466 113.493 5.25643 110.066 1.95635 103.255C-0.00852597 99.1994 -0.0478797 94.514 0.0167727 90.0081C0.0336386 88.7498 0.0575319 87.49 0.0842362 86.2317ZM5.78209 58.4726C4.77576 60.0929 4.93739 61.7861 4.89241 63.4063C4.72937 69.3936 4.53682 75.3808 4.51152 81.3695C4.49185 86.0241 4.82916 90.68 4.77294 95.3318C4.735 98.4208 6.16859 100.872 7.56846 103.385C7.88188 103.948 8.38083 104.443 8.88681 104.857C11.0372 106.62 13.5207 107.417 16.3064 107.308C18.4455 107.224 20.461 106.613 22.4301 105.861C26.0422 104.482 25.9902 104.424 28.2727 101.294C29.0317 100.253 29.362 99.1475 29.57 97.9326C29.7372 96.9535 29.927 95.9673 30.239 95.0274C31.0162 92.6847 31.3816 90.2844 31.3957 87.8281C31.4294 81.838 31.5011 75.8466 31.4477 69.8579C31.4252 67.3104 31.1666 64.7629 30.9431 62.221C30.8504 61.1674 30.0956 60.6638 29.0921 60.8181C20.5692 62.1256 13.747 61.5939 5.78209 58.4726ZM6.08145 52.5597C8.18828 53.7563 10.1841 55.5365 12.4314 56.4161C14.3907 57.1834 16.558 57.1638 18.662 57.1343C21.636 57.0922 24.6494 57.0431 27.5095 56.2337C28.4301 55.9728 29.3563 55.6179 30.0408 54.9515C31.5911 53.4407 30.6592 50.3755 30.9136 48.441C31.6993 42.4692 31.4055 36.4665 31.6079 30.4793C31.74 26.5612 31.2819 22.7076 30.5201 18.906C29.4674 13.6496 26.6381 9.77218 21.2551 8.13088C19.3858 7.56133 17.4561 7.3467 15.6725 8.01444C10.9599 9.77639 7.39559 12.8051 6.22903 17.9366C5.36184 21.7495 5.18897 25.6592 5.6331 29.5281C6.37099 35.9573 5.99713 42.3836 5.90858 48.8142C5.89171 50.1286 5.64435 51.4557 6.08145 52.5597Z" fill="#BEE4FF" fill-opacity="0.6"/>
</g>
<defs>
<clipPath id="clip0_1184_7766">
<rect width="147" height="112" fill="white"/>
</clipPath>
</defs>
</svg>
