<svg width="209" height="190" viewBox="0 0 209 190" fill="none" xmlns="http://www.w3.org/2000/svg">
<path fill-rule="evenodd" clip-rule="evenodd" d="M196.963 129.248C185.487 113.369 176.297 108.081 167.996 108.45C159.694 108.812 152.626 114.691 145.56 120.576C140.698 124.671 135.736 128.849 130.615 131.363C125.273 133.99 119.606 134.879 113.302 132.32C111.829 131.689 110.195 130.35 108.665 128.296C106.449 125.566 104.106 121.571 101.799 116.699C92.7714 98.3326 82.6459 67.7228 72.3453 50.8039C70.0364 46.89 67.6496 43.7498 65.3086 41.6832C63.2226 39.9053 61.2142 38.9535 59.2237 39.3279C57.6058 39.6306 56.077 40.7882 54.4091 42.8957C51.6117 46.4729 49.022 52.4702 46.3794 61.5486C44.0683 69.4948 42.8709 77.8604 40.7313 85.8958C37.4028 98.4662 33.7856 111.308 28.4125 122.52C28.0433 123.241 27.2235 123.525 26.5399 123.174C25.7414 122.87 25.507 121.99 25.8762 121.269C31.1804 110.213 34.736 97.5445 38.0062 85.1556C40.0251 77.1522 41.3284 68.7223 43.633 60.7604C46.3551 51.2306 49.2138 44.9136 52.1945 41.1329C54.265 38.3841 56.4831 36.9476 58.717 36.5135C60.9563 36.0923 63.3501 36.6828 65.6288 38.2799C68.658 40.3877 71.7543 44.258 74.8116 49.3192C85.139 66.3022 95.3082 97.0194 104.364 115.453C106.575 120.097 108.839 123.901 110.881 126.535C112.074 128.105 113.213 129.223 114.468 129.656C119.836 131.9 124.724 131.077 129.401 128.784C134.298 126.376 139.047 122.33 143.822 118.349C151.27 112.094 159.038 105.963 167.876 105.598C176.717 105.237 186.971 110.5 199.228 127.604C199.753 128.217 199.592 129.116 198.975 129.565C198.358 130.015 197.374 129.908 196.963 129.248Z" fill="#92E1B1"/>
<path fill-rule="evenodd" clip-rule="evenodd" d="M198.534 128.877C198.572 128.645 198.592 128.05 198.533 127.589C198.378 125.294 197.758 121.891 197.604 120.881C196.732 111.741 194.998 101.826 191.371 93.1585C191.067 92.4318 191.393 91.6049 192.079 91.3206C192.879 90.9887 193.698 91.3403 194.002 92.067C197.734 100.985 199.464 111.212 200.548 120.539C200.594 121.609 201.232 125.06 201.401 127.386C201.479 128.215 201.504 128.918 201.435 129.395C201.338 129.803 201.2 130.114 201.028 130.344C200.717 130.885 200.103 131.342 199.408 131.605C198.597 131.913 197.573 132.03 196.471 131.964C194.163 131.899 191.208 131.251 188.85 130.747C187.518 130.449 186.344 130.211 185.693 130.259C180.099 130.681 175.454 134.652 173.694 141.992C173.482 142.767 172.734 143.227 171.983 143.035C171.231 142.843 170.772 142.065 170.87 141.337C173.074 132.494 178.689 127.951 185.447 127.427C187.13 127.278 191.415 128.54 194.966 129.008C196.079 129.102 197.043 129.159 197.808 129.064C198.06 129.024 198.19 129.015 198.421 128.926C198.422 128.928 198.538 128.885 198.534 128.877Z" fill="#92E1B1"/>
</svg>
