<svg width="96" height="112" viewBox="0 0 96 112" fill="none" xmlns="http://www.w3.org/2000/svg">
<path d="M51.5404 112C47.268 112 45.1318 112 40.8594 109.854C34.4508 107.709 30.1783 101.272 28.0421 96.9811C25.9059 90.5444 25.9059 84.1077 28.0421 77.671L49.404 28.3232C55.8126 15.4499 68.6298 11.1586 81.4469 15.4497C87.8555 17.5953 92.128 24.0321 94.2642 28.3232C96.4004 34.7599 96.4004 41.1965 94.2642 47.6331L72.9023 96.9811C70.7661 105.563 62.2213 112 51.5404 112ZM75.0385 17.5954C66.4937 17.5954 60.0851 21.8865 55.8127 30.4688L34.4507 79.8166C32.3145 84.1077 32.3145 90.5445 34.4507 94.8356C36.5869 99.1267 40.8593 103.418 45.1317 105.563C55.8127 109.854 66.4937 105.563 72.9023 94.8356L94.2642 45.4876C96.4004 41.1965 96.4004 34.7599 94.2642 30.4688C92.128 26.1776 87.8557 21.8865 83.5833 19.7409C79.3109 17.5954 77.1746 17.5954 75.0385 17.5954Z" fill="#BEE4FF" fill-opacity="0.6"/>
<path d="M81.444 77.6708L38.7201 58.3607C38.7201 58.3607 38.7202 58.3607 36.584 56.2151V54.0696L40.8565 43.3418C40.8565 41.1963 42.9926 41.1963 42.9926 41.1963L83.5804 60.5064C83.5804 60.5064 83.5803 60.5063 85.7165 62.6519C87.8527 64.7975 85.7165 64.7974 85.7165 64.7974L81.444 77.6708ZM42.9926 56.2151L79.3079 73.3797L81.444 66.943L45.1288 49.7786L42.9926 56.2151Z" fill="#BEE4FF" fill-opacity="0.6"/>
<path d="M23.7717 101.272C15.2269 96.9807 8.81836 90.5441 8.81836 81.9619L0.273552 28.3229C-1.86264 15.4495 8.81833 2.57607 21.6355 0.430513C34.4527 -1.71505 47.2697 9.01276 49.4059 21.8861C49.4059 24.0317 49.406 24.0317 47.2698 24.0317C45.1336 24.0317 45.1336 24.0317 45.1336 21.8861C42.9974 11.1583 32.3165 2.57601 21.6355 4.72157C10.9545 6.86713 2.40968 17.5951 4.54588 28.3229L13.0907 81.9619C13.0907 88.3986 19.4992 94.8352 25.9078 96.9808C25.9078 96.9808 25.9079 99.1263 23.7717 101.272C25.9079 101.272 25.9079 101.272 23.7717 101.272Z" fill="#BEE4FF" fill-opacity="0.6"/>
<path d="M6.67882 62.6516C4.54262 62.6516 4.54266 62.6517 4.54266 60.5061L2.40649 49.7783V47.6326C2.40649 47.6326 2.40646 47.6326 4.54266 47.6326L36.5856 43.3416C38.7218 43.3416 38.7217 43.3415 38.7217 45.4871C38.7217 47.6326 38.7218 47.6326 36.5856 47.6326L6.67882 51.9238V58.3604L28.0408 56.2149C30.1769 56.2149 30.1771 56.2149 30.1771 58.3604C30.1771 60.506 30.1769 60.5061 28.0408 60.5061L6.67882 62.6516Z" fill="#BEE4FF" fill-opacity="0.6"/>
<path d="M51.6737 111.844C47.4013 111.844 45.2651 111.844 40.9927 109.698C34.5841 107.553 30.3116 101.116 28.1754 96.8249C26.0392 90.3882 26.0392 83.9515 28.1754 77.5148L49.5373 28.167C55.9459 15.2936 68.7631 11.0024 81.5802 15.2935C87.9888 17.439 92.2613 23.8759 94.3975 28.167C96.5337 34.6037 96.5337 41.0402 94.3975 47.4769L73.0356 96.8249C70.8994 105.407 62.3546 111.844 51.6737 111.844ZM75.1718 17.4392C66.627 17.4392 60.2184 21.7303 55.946 30.3125L34.584 79.6603C32.4478 83.9514 32.4478 90.3882 34.584 94.6793C36.7202 98.9705 40.9926 103.262 45.265 105.407C55.946 109.698 66.627 105.407 73.0356 94.6793L94.3975 45.3314C96.5337 41.0402 96.5337 34.6036 94.3975 30.3125C92.2613 26.0214 87.989 21.7303 83.7166 19.5847C79.4442 17.4391 77.3079 17.4392 75.1718 17.4392Z" fill="#BEE4FF" fill-opacity="0.6"/>
<path d="M81.5778 77.515L38.8539 58.2049C38.8539 58.2049 38.854 58.2049 36.7178 56.0594V53.9139L40.9903 43.1861C40.9903 41.0405 43.1264 41.0405 43.1264 41.0405L83.7141 60.3506C83.7141 60.3506 83.7141 60.3506 85.8503 62.4961C87.9865 64.6417 85.8503 64.6417 85.8503 64.6417L81.5778 77.515ZM43.1264 56.0594L79.4417 73.2239L81.5778 66.7872L45.2626 49.6228L43.1264 56.0594Z" fill="#BEE4FF" fill-opacity="0.6"/>
<path d="M23.9052 101.116C15.3604 96.8249 8.95191 90.3884 8.95191 81.8061L0.407097 28.1671C-1.7291 15.2937 8.95187 2.42031 21.769 0.274751C34.5862 -1.87081 47.4033 8.857 49.5395 21.7304C49.5395 23.8759 49.5395 23.8759 47.4033 23.8759C45.2671 23.8759 45.2671 23.8759 45.2671 21.7304C43.1309 11.0026 32.45 2.42025 21.769 4.56581C11.0881 6.71137 2.54323 17.4393 4.67942 28.1671L13.2242 81.8061C13.2242 88.2428 19.6328 94.6794 26.0414 96.825C26.0414 96.825 26.0414 98.9705 23.9052 101.116C26.0414 101.116 26.0414 101.116 23.9052 101.116Z" fill="#BEE4FF" fill-opacity="0.6"/>
<path d="M6.81236 62.4959C4.67617 62.4959 4.6762 62.4959 4.6762 60.3503L2.54004 49.6225V47.4768C2.54004 47.4768 2.54001 47.4768 4.6762 47.4768L36.7191 43.1858C38.8553 43.1858 38.8553 43.1858 38.8553 45.3313C38.8553 47.4769 38.8553 47.4768 36.7191 47.4768L6.81236 51.7681V58.2047L28.1743 56.0591C30.3105 56.0591 30.3106 56.0591 30.3106 58.2047C30.3106 60.3502 30.3105 60.3503 28.1743 60.3503L6.81236 62.4959Z" fill="#BEE4FF" fill-opacity="0.6"/>
</svg>
