<svg width="116" height="130" viewBox="0 0 116 130" fill="none" xmlns="http://www.w3.org/2000/svg">
<g opacity="0.5">
<path d="M67.4315 119.679C59.7982 123.546 51.172 120.719 47.3037 113.083C43.4354 105.447 46.2591 96.8198 53.8924 92.9529C61.5257 89.086 70.1518 91.913 74.0202 99.549C77.8885 107.185 75.0648 115.812 67.4315 119.679ZM54.8595 94.862C49.1345 97.7621 47.252 103.514 50.1532 109.241C53.0545 114.968 58.8053 116.852 64.5302 113.952C70.2552 111.052 72.1377 105.3 69.2365 99.5734C67.3023 95.7554 60.5845 91.9618 54.8595 94.862Z" fill="#FFB60C"/>
<path d="M44.3307 92.9992C38.6057 95.8994 29.9796 93.0725 27.0783 87.3455C24.1771 81.6184 27.0008 72.9912 32.7258 70.091C38.4508 67.1908 47.077 70.0178 49.9782 75.7448C52.8794 81.4719 50.0557 90.0991 44.3307 92.9992ZM33.6929 72C29.8762 73.9335 27.9937 79.685 29.9279 83.503C31.862 87.3211 37.6128 89.2056 41.4295 87.2722C45.2461 85.3387 47.1287 79.5872 45.1945 75.7692C43.2604 71.9512 37.5095 70.0666 33.6929 72Z" fill="#FFB60C"/>
<path d="M32.7031 65.3042C26.9781 68.2043 21.2273 66.3198 18.3261 60.5927C15.4249 54.8656 17.3074 49.1142 23.0323 46.214C28.7573 43.3138 34.5081 45.1984 37.4094 50.9255C40.3106 56.6525 38.4281 62.404 32.7031 65.3042ZM23.9994 48.123C20.1828 50.0565 18.3004 55.8079 20.2345 59.6259C22.1687 63.444 27.9194 65.3286 31.736 63.3951C35.5527 61.4617 37.4352 55.7102 35.5011 51.8922C33.5669 48.0741 27.8161 46.1896 23.9994 48.123Z" fill="#FFB60C"/>
<path d="M26.8226 39.4961C23.0059 41.4295 17.2551 39.5449 15.3209 35.7269C13.3868 31.9089 15.2693 26.1574 19.086 24.2239C22.9026 22.2905 28.6534 24.175 30.5876 27.9931C32.5217 31.8111 30.6392 37.5626 26.8226 39.4961ZM21.0201 28.042C19.1118 29.0087 16.2622 32.8512 18.1963 36.6692C20.1305 40.4872 23.0059 41.4295 26.8226 39.4961C28.7309 38.5294 31.5805 34.6868 29.6464 30.8688C27.7122 27.0508 22.9285 27.0752 21.0201 28.042Z" fill="#FFB60C"/>
<path d="M96.0558 105.178C33.6607 67.2179 41.0357 15.5034 40.0687 13.5944L41.977 12.6276L42.944 14.5367C42.944 14.5367 37.4774 65.2845 96.03 100.394C96.997 102.303 96.9971 102.303 96.0558 105.178C97.9641 104.212 97.9641 104.212 96.0558 105.178Z" fill="#FFB60C"/>
<path d="M78.6745 75.6008C74.8578 77.5343 71.0412 79.4677 66.2575 79.4922C66.2575 79.4922 66.2574 79.4922 63.382 78.5499C63.382 78.5499 58.5725 73.7895 59.4879 66.129C59.4621 61.3442 63.2529 54.6261 68.0108 49.8169C81.3432 38.265 78.4421 32.5379 77.475 30.6289C77.475 30.6289 76.5079 28.7199 78.4162 27.7532C78.4162 27.7532 80.3245 26.7865 81.2916 28.6955C83.2257 32.5135 94.8048 50.637 88.1902 65.9825C88.2161 70.7672 84.3994 72.7006 78.6745 75.6008ZM67.1987 76.6164C75.7991 74.6585 83.4324 70.7916 85.3149 65.0401C88.1386 56.4129 85.2116 45.9011 81.3433 38.265C80.402 41.1407 76.6112 47.859 69.9449 53.6349C65.187 58.4441 62.3375 62.2866 62.3633 67.0713C64.2975 70.8894 66.2316 74.7074 67.1987 76.6164Z" fill="#FFB60C"/>
<path d="M66.2657 79.4878C64.3573 80.4545 63.3901 78.5455 63.3901 78.5455C63.3901 78.5455 66.1882 65.1335 77.6123 54.5483C77.6123 54.5483 79.5206 53.5816 80.4877 55.4907C80.4877 55.4907 81.4548 57.3997 79.5465 58.3664C70.0307 67.9848 68.174 78.521 66.2657 79.4878Z" fill="#FFB60C"/>
</g>
</svg>
