<svg width="103" height="124" viewBox="0 0 103 124" fill="none" xmlns="http://www.w3.org/2000/svg">
<path d="M33.5498 99.875C23.3039 95.0312 17.4868 84.2438 19.075 73.0317C19.8513 67.5513 22.3099 62.5736 26.1854 58.6364C26.2738 58.5466 26.3563 58.4464 26.428 58.3427C27.1174 57.3464 26.8654 55.9819 25.8666 55.2933C24.9627 54.6693 23.7549 54.8167 23.0227 55.5889C18.5003 60.1952 15.6306 66.013 14.7237 72.4153C13.8053 78.8989 14.9834 85.354 18.1305 91.0822C21.1725 96.6189 25.9809 101.15 31.6705 103.839C31.8762 103.936 32.0893 103.999 32.3031 104.029C33.2307 104.161 34.1748 103.685 34.5965 102.796C35.1155 101.701 34.6469 100.394 33.5498 99.875Z" fill="#BEE4FF" fill-opacity="0.6"/>
<path d="M95.6507 63.0843C96.2361 58.951 95.5033 54.8302 93.5312 51.1632L82.649 28.8069C82.3293 28.1505 81.704 27.6955 80.9801 27.593C80.2563 27.4905 79.5292 27.7538 79.0398 28.2956L72.0183 36.0719L57.8398 6.94539C57.5204 6.28902 56.8948 5.83404 56.1712 5.73154C55.4475 5.62903 54.7202 5.89238 54.2311 6.43422L16.9635 47.7071C10.8366 53.9497 6.94947 61.833 5.72046 70.5095C2.56631 92.777 18.152 113.464 40.4634 116.625C62.7747 119.785 83.4926 104.24 86.6468 81.9726C86.8986 80.195 87.0318 78.3974 87.0488 76.6116C91.5654 73.6462 94.836 68.8357 95.6507 63.0843ZM80.122 33.6512L89.5781 53.0772C89.5968 53.1175 89.6169 53.1573 89.6382 53.1967C91.1805 56.0451 91.7549 59.2509 91.2992 62.4677C90.1332 70.6997 82.4741 76.4464 74.2256 75.2781C65.9774 74.1097 60.2156 66.462 61.3817 58.23C61.8373 55.0132 63.2794 52.0929 65.5521 49.7849C65.5822 49.7544 65.6112 49.7231 65.6396 49.6906L73.0952 41.4335C73.1089 41.4184 73.123 41.4036 73.1363 41.388L80.122 33.6512ZM82.2951 81.3562C79.4801 101.229 60.9903 115.102 41.0783 112.282C21.1661 109.461 7.25675 90.9988 10.0717 71.1259C11.1712 63.3642 14.6533 56.3141 20.142 50.7385C20.1733 50.7068 20.204 50.6733 20.234 50.6387L55.3131 11.7895L68.8447 39.5871L62.3767 46.7504C59.4641 49.7253 57.6156 53.4806 57.0301 57.6138C55.5249 68.2405 62.9628 78.113 73.6104 79.6212C76.7239 80.0622 79.7719 79.7389 82.5647 78.7963C82.5041 79.6516 82.4154 80.5065 82.2951 81.3562Z" fill="#BEE4FF" fill-opacity="0.6"/>
<path d="M68.7434 58.7331C68.8924 57.681 69.251 56.6961 69.809 55.8056C70.4525 54.7788 70.1397 53.4254 69.1108 52.7829C68.0817 52.1407 66.7262 52.4513 66.0827 53.4781C65.1964 54.8924 64.6276 56.453 64.3919 58.1167C63.8337 62.0577 65.2764 65.9988 68.2512 68.6583C68.5877 68.9591 68.9912 69.1372 69.4072 69.1961C70.1091 69.2956 70.8459 69.0548 71.354 68.4886C72.1634 67.5864 72.0866 66.1997 71.1824 65.3914C69.3027 63.7109 68.3909 61.2218 68.7434 58.7331Z" fill="#BEE4FF" fill-opacity="0.6"/>
<path d="M41.195 104.026C40.8603 102.553 38.9294 101.873 37.746 102.82C36.3535 103.831 36.7047 106.099 38.3411 106.641C39.9546 107.241 41.6559 105.682 41.195 104.026Z" fill="#BEE4FF" fill-opacity="0.6"/>
<path d="M73.6008 71.4351C74.8664 72.6036 77.0274 71.8159 77.2397 70.1098C77.5124 68.4121 75.6516 67.0525 74.1124 67.8239C72.7291 68.4387 72.4374 70.4622 73.6008 71.4351Z" fill="#BEE4FF" fill-opacity="0.6"/>
</svg>
