<svg width="177" height="167" viewBox="0 0 177 167" fill="none" xmlns="http://www.w3.org/2000/svg">
<g clip-path="url(#clip0_1184_7618)">
<path d="M40.6983 24.8907C42.7256 21.8342 45.5541 19.5169 48.7175 17.9804C54.4952 15.1727 62.2158 15.3043 67.4341 21.2801C70.4777 24.7663 73.3852 28.4032 75.0559 32.8625C75.8659 35.0252 77.0048 37.0755 78.1187 39.11C80.8958 44.1786 82.5402 49.709 84.0471 55.1953C85.3921 60.0966 86.9557 64.9772 87.8861 69.9723C88.5039 73.2845 88.3941 76.7444 88.4708 80.1411C88.5081 81.7623 87.5891 82.6143 85.9263 82.9651C85.7754 82.996 85.621 83.0318 85.4685 83.0349C79.1194 83.1407 73.4865 85.9492 67.5794 87.7398C64.3286 88.7258 61.0458 89.6256 57.7366 90.3948C55.5636 90.901 54.2233 90.0564 53.3975 87.9088C51.621 83.288 49.9441 78.6303 48.1427 74.0205C46.737 70.4247 45.3163 66.8664 44.3097 63.1049C43.5636 60.3198 41.9312 57.7442 40.5119 55.1755C39.5146 53.3709 38.9231 51.5582 38.7524 49.4864C38.4584 45.9417 38.1478 42.3631 37.388 38.8994C36.2298 33.6105 37.8122 29.1336 40.6983 24.8907ZM58.5374 83.9332C61.1533 84.376 63.1314 84.0482 65.0406 83.3579C69.4087 81.7777 73.7615 80.155 78.1005 78.498C78.8075 78.2286 79.3805 77.6295 80.0695 77.2913C82.7371 75.9837 83.4548 73.6895 82.937 71.0508C82.0471 66.5041 81.2998 61.8745 79.8259 57.5048C76.9647 49.0196 74.4422 40.3418 69.2088 32.8578C68.856 32.3521 68.5198 31.8004 68.336 31.2188C67.0659 27.2126 63.9201 24.9823 60.5866 22.9138C58.3263 21.5104 55.9464 21.4134 53.425 22.0857C50.9145 22.7563 49.1801 24.5112 47.2337 26.054C43.4555 29.0485 42.0188 33.0376 42.4542 37.5692C43.0455 43.7258 43.8995 49.8211 46.6817 55.567C49.5114 61.4079 52.3189 67.2859 54.3682 73.4907C55.5266 77.0063 57.1002 80.3775 58.5374 83.9332Z" fill="#BEE4FF"/>
<path d="M94.9034 85.506C100.314 82.4322 105.973 79.7923 112.25 78.2027C117.375 76.9054 122.514 76.0593 127.708 75.3042C135.707 74.1406 143.773 73.5659 151.818 73.8089C157.379 73.9769 162.874 75.4822 167.479 78.9341C169.86 80.7184 171.582 83.1578 172.456 86.0742C173.14 88.3566 172.474 90.4221 170.997 92.1432C166.935 96.8843 162.518 101.29 156.571 103.58C153.264 104.853 149.752 105.624 146.295 106.471C139.222 108.202 132.153 109.963 125.027 111.456C119.738 112.563 114.538 114.116 109.081 114.499C106.538 114.678 104.817 113.887 103.617 111.867C102.034 109.207 100.529 106.493 99.15 103.721C97.7013 100.809 96.5076 97.7691 95.0835 94.8432C93.0119 90.5823 92.9663 90.6049 94.9034 85.506ZM163.734 91.2006C166.21 87.6798 165.676 84.1592 162.755 82.0632C161.883 81.4377 160.911 80.9138 159.919 80.5082C156.435 79.0868 152.836 78.4124 149.033 78.6535C141.464 79.1338 133.906 79.6238 126.386 80.7015C120.082 81.606 113.93 83.0972 107.848 84.9042C105.79 85.5157 103.789 86.4495 101.91 87.4986C99.855 88.6474 99.5156 90.0097 100.444 92.2C101.225 94.0444 102.313 95.7785 102.917 97.6734C103.979 100.995 105.898 103.76 107.96 106.485C109.217 108.146 110.73 108.646 112.816 108.355C118.193 107.609 123.452 106.375 128.695 105.018C134.534 103.505 140.353 101.886 146.254 100.658C150.894 99.6914 155.144 97.9769 158.991 95.3113C160.88 94.0007 162.495 92.29 163.734 91.2006Z" fill="#BEE4FF"/>
<path d="M68.8086 122.485C70.0897 123.381 70.469 125.246 69.6539 126.646C68.7454 128.208 65.6988 128.739 64.2783 127.584C63.0365 126.574 62.8497 124.728 63.8566 123.404C65.0845 121.793 67.2446 121.391 68.8086 122.485Z" fill="#BEE4FF"/>
<path d="M59.7475 102.609C61.1329 103.578 61.4673 105.258 60.5651 106.701C59.5473 108.327 57.2823 108.696 55.6747 107.495C54.6269 106.715 54.6197 104.788 55.6561 103.254C56.57 101.901 58.3382 101.622 59.7475 102.609Z" fill="#BEE4FF"/>
<path d="M84.8176 120.086C83.0987 118.865 82.6022 117.332 83.2806 116.22C84.0399 114.974 85.4185 114.461 86.8977 114.907C87.3372 115.039 87.7744 115.228 88.1626 115.471C89.1447 116.085 89.7522 116.921 89.5814 118.161C89.4102 119.415 88.4314 120.43 87.0676 120.462C86.1877 120.482 85.2991 120.174 84.8176 120.086Z" fill="#BEE4FF"/>
<path d="M73.5365 111.361C74.7654 112.256 74.9112 114.135 73.8572 115.48C72.8474 116.768 71.1414 116.988 69.7425 116.014C68.3341 115.032 67.9801 113.203 68.964 111.991C70.0413 110.661 72.1695 110.367 73.5365 111.361Z" fill="#BEE4FF"/>
<path d="M84.5921 102.251C85.9954 100.568 88.1117 100.227 89.3655 101.481C90.3691 102.486 90.2419 104.397 89.0888 105.622C87.8117 106.977 85.991 107.085 84.5917 105.887C83.4815 104.936 83.4814 103.584 84.5921 102.251Z" fill="#BEE4FF"/>
<path d="M86.3552 94.8208C85.4446 96.132 83.7559 96.3016 82.317 95.2255C80.9912 94.2341 80.5717 92.6552 81.3716 91.6634C82.6216 90.1117 84.9094 89.6478 86.2666 90.6693C87.3623 91.4938 87.402 93.3154 86.3552 94.8208Z" fill="#BEE4FF"/>
<path d="M72.8393 100.539C71.9413 101.753 69.9357 102.032 68.6869 101.118C67.6412 100.352 67.2876 98.3481 68.022 97.3598C68.8368 96.2674 71.0817 95.7723 72.2301 96.4339C73.4822 97.1563 73.793 99.2522 72.8393 100.539Z" fill="#BEE4FF"/>
<path d="M81.3712 131.895C80.5641 133.054 78.8507 133.501 77.7561 132.842C76.4425 132.051 76.0439 130.056 76.963 128.86C77.9205 127.614 79.6799 127.351 81.0383 128.247C82.1193 128.962 82.2688 130.609 81.3712 131.895Z" fill="#BEE4FF"/>
</g>
<defs>
<clipPath id="clip0_1184_7618">
<rect width="145" height="100" fill="white" transform="translate(58.7451) rotate(35.9765)"/>
</clipPath>
</defs>
</svg>
