<svg width="128" height="128" viewBox="0 0 128 128" fill="none" xmlns="http://www.w3.org/2000/svg">
<g clip-path="url(#clip0_1184_7777)">
<path d="M111.32 50.543C108.736 46.1815 103.589 44.0418 98.6755 45.2864L97.5427 42.5416C94.4173 34.9685 86.1158 31.1783 79.0394 34.0987C72.1669 36.9349 68.8805 45.2883 71.7068 52.7233L71.7944 52.6872L71.713 52.7384L83.9921 82.4918C87.9175 92.0035 83.9941 102.662 75.2524 106.27C66.5107 109.878 56.2075 105.078 52.2865 95.5766L51.2229 92.9994C53.4121 92.0959 55.0974 89.5433 53.2599 85.091L51.6929 81.2938C60.3602 74.8173 63.8443 63.6419 59.9513 54.2087L58.6522 51.0608L55.6326 52.307L47.4597 32.6832C45.9368 29.055 42.045 27.0265 38.1985 27.8562C36.4503 25.8095 33.3738 25.5675 31.327 27.316C29.2804 29.0642 29.0384 32.1407 30.7869 34.1875C32.5351 36.2341 35.6116 36.4761 37.6583 34.7276C38.7542 33.7914 39.3795 32.4182 39.3663 30.977C41.5276 30.7291 43.5938 31.9357 44.4394 33.9403L52.613 53.5531L49.5934 54.7993L50.9106 57.991C52.9575 63.2923 51.3201 69.3091 46.8691 72.842C44.5212 74.8141 41.6206 76.0112 38.5652 76.269C32.9218 76.8962 27.5258 73.783 25.2442 68.5834L23.927 65.3917L19.3976 67.2609L11.2975 47.6337C10.464 45.5894 11.1006 43.24 12.8523 41.8962C14.7366 43.8562 17.8529 43.9174 19.8129 42.0331C21.7729 40.1488 21.834 37.0324 19.9498 35.0725C18.0656 33.1127 14.949 33.0514 12.9892 34.9356C11.9273 35.9567 11.3782 37.3996 11.4932 38.8684C8.12995 40.98 6.77299 45.2048 8.27794 48.8798L16.378 68.5071L13.3584 69.7533L14.6544 72.8936C18.5518 82.3374 28.9093 87.804 39.6146 86.2785L41.1816 90.0756C43.0191 94.528 46.0141 95.149 48.2033 94.2455L49.2669 96.8227C53.8777 107.995 66.0916 113.584 76.4986 109.29C86.9056 104.995 91.6181 92.4076 87.0117 81.2457L74.7625 51.5647C72.5489 45.7727 75.0304 39.2924 80.2875 37.1228C85.6986 34.8897 92.085 37.8799 94.525 43.7923L95.6559 46.5325C90.223 49.7505 88.4275 56.7634 91.6454 62.1963C94.8634 67.6292 101.876 69.4247 107.309 66.2068C112.742 62.9889 114.538 55.9757 111.32 50.543ZM35.0947 32.5119C34.2609 32.856 33.3059 32.459 32.9618 31.6252C32.6177 30.7914 33.0148 29.8364 33.8486 29.4923C34.6823 29.1482 35.6373 29.5452 35.9814 30.379C36.3255 31.2128 35.9285 32.1678 35.0947 32.5119ZM15.7311 36.9693C16.5648 36.6252 17.5198 37.0222 17.8639 37.856C18.208 38.6898 17.811 39.6448 16.9772 39.9889C16.1434 40.333 15.1885 39.936 14.8444 39.1022C14.5003 38.2684 14.8973 37.3134 15.7311 36.9693ZM17.674 71.6475L17.6242 71.5267L22.1535 69.6575L22.2246 69.8296C25.046 76.345 31.7751 80.2701 38.8354 79.5182C42.5668 79.2012 46.1092 77.7393 48.9782 75.3323C54.5178 70.8872 56.524 63.3568 53.9302 56.7448L53.8592 56.5727L56.8787 55.3266L56.9286 55.4473C60.3948 63.8463 56.9708 73.9085 48.7826 79.3798C46.8599 80.6645 44.7564 81.6558 42.5418 82.3211C41.8136 82.5421 41.0741 82.724 40.3266 82.866C30.6642 84.7651 21.1402 80.0464 17.674 71.6475ZM46.9571 91.2259C45.5983 91.7867 44.575 89.7353 44.2012 88.8294L42.879 85.6257C43.006 85.5909 43.1323 85.5459 43.2596 85.5075C43.4174 85.4618 43.5734 85.4115 43.73 85.3628C44.4703 85.1315 45.2079 84.8766 45.9347 84.5784L46.0102 84.5472C46.7349 84.2482 47.4355 83.9078 48.1189 83.5515C48.2643 83.4756 48.4194 83.3975 48.568 83.3167C48.6817 83.2539 48.8036 83.1983 48.9167 83.134L50.2388 86.3377C50.6127 87.2436 51.334 89.4196 49.9752 89.9804L46.9571 91.2259ZM104.593 63.9062C100.424 65.6267 95.649 63.6417 93.9285 59.4726C92.2079 55.3035 94.1929 50.5288 98.362 48.8082C102.531 47.0877 107.306 49.0727 109.026 53.2418C110.741 57.411 108.758 62.1815 104.593 63.9062Z" fill="#BEE4FF" fill-opacity="0.3"/>
<path d="M99.608 51.8275C97.1065 52.8599 95.9155 55.7246 96.9479 58.2262C97.9802 60.7277 100.845 61.9186 103.346 60.8863C105.848 59.8539 107.039 56.9892 106.007 54.4877C104.974 51.9861 102.11 50.7952 99.608 51.8275ZM102.1 57.8667C101.267 58.2108 100.312 57.8138 99.9674 56.98C99.6233 56.1462 100.02 55.1912 100.854 54.8471C101.688 54.503 102.643 54.9 102.987 55.7338C103.331 56.5676 102.934 57.5226 102.1 57.8667Z" fill="#BEE4FF" fill-opacity="0.3"/>
</g>
<defs>
<clipPath id="clip0_1184_7777">
<rect width="98" height="98" fill="white" transform="translate(0 37.3843) rotate(-22.4257)"/>
</clipPath>
</defs>
</svg>
