<svg width="129" height="136" viewBox="0 0 129 136" fill="none" xmlns="http://www.w3.org/2000/svg">
<g opacity="0.3">
<path d="M66.2747 88.3769C65.0801 86.5906 65.0801 86.5906 66.2747 88.3769L93.2563 54.8227C95.0536 53.6208 95.0536 53.6208 96.2482 55.4071L110.594 69.0804C119.559 78.5965 120.139 91.1338 111.745 101.918C102.155 110.916 89.5851 111.566 78.8231 103.252L66.2747 88.3769ZM93.848 59.5973L68.072 87.175L81.2231 99.0619C88.9932 106.792 100.369 104.355 106.364 97.7609C114.156 89.965 111.778 78.6295 105.202 72.686L93.848 59.5973Z" fill="#BEE4FF"/>
<path d="M45.3667 60.9997L38.2102 42.5189C36.4238 35.958 35.832 31.1834 38.8348 24.005C40.0403 18.0285 45.4323 14.4228 50.8243 10.8171C57.4108 8.99769 62.1999 8.38025 69.3782 11.3354C75.362 12.5043 78.9456 17.8633 82.5293 23.2223L89.6858 41.7031C89.6858 41.7031 89.6858 41.7031 90.8804 43.4895L89.0831 44.6914L50.1558 60.3822C48.3585 61.5841 48.3586 61.5841 45.3667 60.9997ZM74.7483 23.2553C72.3592 19.6827 71.1647 17.8963 66.9782 15.5256C62.7918 13.1548 58.0026 13.7723 53.2134 14.3897C49.6188 16.7936 44.2267 20.3993 43.624 23.3876C41.2239 27.5777 41.8158 32.3522 42.4077 37.1268L49.564 55.6077L83.7021 40.5342L77.7402 23.8398C75.9429 25.0417 74.7483 23.2553 74.7483 23.2553Z" fill="#BEE4FF"/>
<path d="M50.1472 68.1492L45.9717 58.0156C45.9717 58.0156 47.769 56.8138 49.5663 55.6119L84.8989 42.3248C86.6963 41.1229 87.8908 42.9092 87.8908 42.9092L90.8718 51.2564C90.8718 51.2564 90.8718 51.2564 92.0663 53.0428L90.2689 54.2447L54.9364 67.5318C53.139 68.7337 51.3418 69.9355 50.1472 68.1492ZM51.9554 59.1845L52.5472 63.9591L83.0906 51.2895L82.4988 46.515L51.9554 59.1845Z" fill="#BEE4FF"/>
<path d="M42.9419 80.7124C41.7473 78.926 41.7474 78.926 43.5447 77.7241L48.9366 74.1184C50.7339 72.9165 50.7339 72.9165 51.9284 74.7028C53.123 76.4892 53.123 76.4892 51.3257 77.6911L45.9339 81.2967C44.1366 82.4986 42.9419 80.7124 42.9419 80.7124Z" fill="#BEE4FF"/>
<path d="M40.5318 92.6657C39.3372 90.8794 39.3372 90.8794 41.1345 89.6775L48.3238 84.8699C50.1211 83.668 50.1211 83.668 51.3157 85.4543C52.5102 87.2406 52.5102 87.2406 50.7129 88.4425L43.5237 93.2502C43.5237 93.2502 41.7264 94.4521 40.5318 92.6657Z" fill="#BEE4FF"/>
<path d="M55.5169 80.0693C54.3224 78.283 54.3225 78.2829 56.1198 77.081L57.9171 75.8791C59.7144 74.6772 59.7144 74.6772 60.9089 76.4636C62.1035 78.2499 62.1035 78.2499 60.3062 79.4518L58.5089 80.6537C59.7035 82.44 56.7115 81.8557 55.5169 80.0693Z" fill="#BEE4FF"/>
<path d="M31.578 75.3869C30.3835 73.6006 30.3834 73.6006 32.1808 72.3987L35.7753 69.9949C37.5726 68.793 37.5728 68.793 38.7673 70.5793C39.9619 72.3656 39.9618 72.3657 38.1645 73.5676L34.5699 75.9714L31.578 75.3869Z" fill="#BEE4FF"/>
<path d="M39.9223 103.424C38.7278 101.638 38.7278 101.638 40.5251 100.436L45.9171 96.8303C47.7144 95.6284 47.7144 95.6284 48.9089 97.4148C50.1035 99.2011 50.1035 99.2011 48.3062 100.403L42.9142 104.009C42.9142 104.009 41.1169 105.211 39.9223 103.424Z" fill="#BEE4FF"/>
<path d="M29.1659 87.3386C27.9714 85.5523 27.9713 85.5523 29.7686 84.3504L33.3634 81.9465C35.1607 80.7446 35.1606 80.7446 36.3552 82.531C37.5498 84.3173 37.5498 84.3173 35.7525 85.5192L32.1578 87.9231C32.1578 87.9231 30.3605 89.1249 29.1659 87.3386Z" fill="#BEE4FF"/>
<path d="M65.1084 71.0731C63.9138 69.2868 63.9138 69.2868 65.7111 68.0849L67.5084 66.883C69.3057 65.6811 69.3057 65.6812 70.5002 67.4675C71.6948 69.2538 71.6948 69.2538 69.8975 70.4557L68.1002 71.6576C66.3029 72.8595 65.1084 71.0731 65.1084 71.0731Z" fill="#BEE4FF"/>
</g>
</svg>
