<svg xmlns="http://www.w3.org/2000/svg" version="1.1" xmlns:xlink="http://www.w3.org/1999/xlink" width="42" height="42" x="0" y="0" viewBox="0 0 48 48" style="enable-background:new 0 0 512 512" xml:space="preserve" class=""><g><path d="M14 10c1.5 0 9-.14 9-3s-7.5-3-9-3-9 .14-9 3 7.5 3 9 3zm6.73-3C18.06 8.33 9.94 8.33 7.27 7c2.67-1.33 10.79-1.33 13.46 0zM22 26h-4v-4a1 1 0 0 0-1-1h-6a1 1 0 0 0-1 1v4H6a1 1 0 0 0-1 1v6a1 1 0 0 0 1 1h4v4a1 1 0 0 0 1 1h6a1 1 0 0 0 1-1v-4h4a1 1 0 0 0 1-1v-6a1 1 0 0 0-1-1zm-1 6h-4a1 1 0 0 0-1 1v4h-4v-4a1 1 0 0 0-1-1H7v-4h4a1 1 0 0 0 1-1v-4h4v4a1 1 0 0 0 1 1h4z" fill="#1B3C74" opacity="1" data-original="#000000" class=""></path><path d="M44 14a3 3 0 0 0 3-3V9a3 3 0 0 0-3-3h-2V3a3 3 0 0 0-3-3H14C6.15 0 0 3.07 0 7v34c0 3.93 6.15 7 14 7s14-3.07 14-7a.82.82 0 0 0-.06-.27c.09-.28.06.19.06-4.73h11a3 3 0 0 0 3-3v-3h2a3 3 0 0 0 3-3v-2a3 3 0 0 0-3-3h-2v-8zm1-5v2a1 1 0 0 1-1 1h-6a1 1 0 0 1-1-1V9a1 1 0 0 1 1-1h6a1 1 0 0 1 1 1zM14 2c7.07 0 12 2.64 12 5s-4.93 5-12 5S2 9.36 2 7s4.93-5 12-5zm0 44c-7.07 0-12-2.64-12-5V10.64c5.37 4.48 18.63 4.48 24 0V41c0 2.36-4.93 5-12 5zm31-21v2a1 1 0 0 1-1 1h-6a1 1 0 0 1-1-1v-2a1 1 0 0 1 1-1h6a1 1 0 0 1 1 1zm-5-3h-2a3 3 0 0 0-3 3v2a3 3 0 0 0 3 3h2v3a1 1 0 0 1-1 1H28c0-27.88 0-26-.07-26.33.47-2.56-1.71-4.52-4.05-5.67H39a1 1 0 0 1 1 1v3h-2a3 3 0 0 0-3 3v2a3 3 0 0 0 3 3h2z" fill="#1B3C74" opacity="1" data-original="#000000" class=""></path></g></svg>